<svg width="104" height="72" viewBox="0 0 104 72" fill="none" xmlns="http://www.w3.org/2000/svg">
<g clip-path="url(#clip0_129_592)">
<path d="M37.9852 14.9023C38.5552 14.9023 39.1352 14.8323 39.7152 14.6823C42.8952 13.8723 45.0152 11.0123 45.0152 7.8723C45.0152 7.2923 44.9452 6.7123 44.7952 6.1323C43.8352 2.3723 40.0052 0.102304 36.2452 1.0523C32.4852 2.0023 30.2052 5.8423 31.1652 9.6023C31.9752 12.7823 34.8452 14.9023 37.9852 14.9023Z" fill="#F2F1E3"/>
<path d="M77.7951 66.6124L57.9651 30.3024C58.7951 29.0524 58.7951 27.4224 57.9351 26.1624C57.2251 25.1324 56.0551 24.5324 54.8251 24.5424L51.1351 17.7824C50.9351 17.4224 50.4851 17.2924 50.1151 17.4824C49.7551 17.6824 49.6251 18.1424 49.8151 18.5024L53.3051 24.8924C53.1151 24.9724 52.9351 25.0724 52.7651 25.1924L46.8951 29.2124L43.9851 24.9524C43.1251 23.7024 42.3851 22.3824 41.7751 21.0224C41.2951 19.9524 40.5051 19.0824 39.4851 18.5124C39.4751 18.5024 39.3851 18.4624 39.3751 18.4524C39.2751 18.4024 39.1651 18.3524 39.1351 18.3424C38.8451 18.1924 38.5451 18.0724 38.2151 17.9924L32.6651 16.5024C31.2951 16.1324 29.8951 16.3224 28.7051 16.9524C28.9751 15.0224 27.7751 13.1124 25.8351 12.5724L19.1051 10.6824C14.9451 9.51236 10.5951 11.9524 9.41512 16.1224L4.62512 33.2224C4.21512 34.6624 4.39512 36.1824 5.13512 37.4924C5.86512 38.7924 7.06512 39.7424 8.51512 40.1424L19.8451 43.3324L16.2851 56.6524L10.2551 63.3224C9.44512 64.2224 9.02512 65.3724 9.08512 66.5824C9.14512 67.7924 9.67512 68.9024 10.5751 69.7124C11.4151 70.4724 12.4751 70.8824 13.6051 70.8824H13.8451C15.0551 70.8124 16.1551 70.2924 16.9551 69.3924L24.3351 61.2424C24.4151 61.1524 24.4751 61.0524 24.5051 60.9324L28.0351 47.7424L33.3551 51.6724C33.1951 51.8124 33.0751 52.0124 33.0751 52.2424V66.9624C33.0751 67.3724 33.4151 67.7124 33.8251 67.7124C34.2351 67.7124 34.5751 67.3724 34.5751 66.9624V52.5624L37.8651 54.9924L41.9951 67.3524C42.4251 68.6524 43.4151 69.6824 44.6951 70.1624C45.9751 70.6424 47.3951 70.5124 48.5851 69.8224C50.4151 68.7624 51.2351 66.4724 50.5451 64.3824L45.6451 49.7024C45.5751 49.5024 45.4351 49.3524 45.2551 49.2724L37.1151 43.0024L39.9851 32.3024L44.3351 38.6424C44.4451 38.8024 44.6051 38.9124 44.7851 38.9524C44.8951 39.0524 45.0251 39.1224 45.1651 39.1424C45.3651 39.1824 45.5651 39.1424 45.7251 39.0224L56.8451 31.4024L76.4751 67.3124C76.6051 67.5624 76.8651 67.7124 77.1351 67.7124C77.2551 67.7124 77.3751 67.6824 77.4851 67.6124C77.8551 67.4124 77.9851 66.9624 77.7851 66.6024L77.7951 66.6124Z" fill="#F2F1E3"/>
<path d="M103.235 65.0223C103.145 65.1923 102.975 65.2823 102.795 65.2823H45.615C44.985 63.2823 44.285 61.6423 43.625 60.3423L48.555 51.8123L50.345 48.7023C50.445 48.5523 50.615 48.4523 50.795 48.4523H54.175L55.175 46.5723L56.295 44.4623L59.895 37.6923L64.545 28.9223C64.575 28.8623 64.605 28.8123 64.655 28.7623C64.655 28.7523 64.675 28.7423 64.685 28.7323C64.705 28.7023 64.735 28.6823 64.765 28.6723C64.835 28.6423 64.905 28.6223 64.975 28.6123C64.975 28.6123 64.975 28.6123 64.995 28.6123H65.045C65.045 28.6123 65.115 28.6123 65.145 28.6323C65.175 28.6323 65.195 28.6423 65.205 28.6523C65.265 28.6723 65.315 28.7023 65.365 28.7523C65.395 28.7723 65.415 28.8023 65.435 28.8223C65.455 28.8423 65.465 28.8723 65.475 28.9023L72.275 42.6323L72.545 43.1923H75.735C75.925 43.1923 76.085 43.2923 76.185 43.4423L77.295 45.3123L80.275 41.0023L82.525 37.7423C82.525 37.7423 82.545 37.7123 82.565 37.7023C82.595 37.6523 82.645 37.6123 82.695 37.5823C82.745 37.5623 82.785 37.5523 82.825 37.5323C82.845 37.5323 82.875 37.5223 82.905 37.5223H82.935C82.935 37.5223 82.975 37.5223 82.985 37.5323H83.065C83.065 37.5323 83.125 37.5523 83.145 37.5723C83.195 37.5823 83.235 37.6123 83.265 37.6423C83.295 37.6623 83.335 37.7023 83.355 37.7423C83.365 37.7423 83.385 37.7723 83.385 37.7823L94.375 57.3523L94.905 52.6023C94.935 52.3823 95.085 52.2123 95.305 52.1623C95.515 52.1123 95.735 52.2123 95.855 52.3923L103.225 64.5123C103.325 64.6723 103.325 64.8723 103.225 65.0323L103.235 65.0223Z" fill="#F2F1E3"/>
<path d="M71.505 43.7323L69.985 41.1723H66.475C66.475 41.1723 65.275 38.7423 63.845 35.8623" stroke="#CAA57B" stroke-width="1.5" stroke-linecap="round" stroke-linejoin="round"/>
<path d="M61.955 32.0323L59.265 26.5823L48.725 46.4323H45.035L42.415 50.9623" stroke="#CAA57B" stroke-width="1.5" stroke-linecap="round" stroke-linejoin="round"/>
<path d="M45.0151 62.2523H97.0351C97.0351 62.2523 96.1051 60.7223 94.8951 58.7423" stroke="#CAA57B" stroke-width="1.5" stroke-linecap="round" stroke-linejoin="round"/>
<path d="M92.455 54.7322C90.945 52.2622 89.655 50.1222 89.655 50.1222L88.955 56.4422C88.955 56.4422 85.555 50.3822 82.405 44.7822" stroke="#CAA57B" stroke-width="1.5" stroke-linecap="round" stroke-linejoin="round"/>
<path d="M82.3449 44.6923C79.6649 39.9123 77.1849 35.5023 77.1849 35.5023C77.1849 35.5023 69.9549 45.9823 64.5449 53.8323" stroke="#CAA57B" stroke-width="1.5" stroke-linecap="round" stroke-linejoin="round"/>
<path d="M61.1251 58.7822L58.7351 62.2522" stroke="#CAA57B" stroke-width="1.5" stroke-linecap="round" stroke-linejoin="round"/>
<path d="M44.3149 57.5123L48.3449 51.4723L51.4549 56.8623L53.9649 54.8123V62.2523" stroke="#CAA57B" stroke-width="1.5" stroke-linecap="round" stroke-linejoin="round"/>
<path d="M59.2651 26.5923L60.1751 42.7523L55.3151 47.2023L53.9651 41.3423L50.9551 42.2423" stroke="#CAA57B" stroke-width="1.5" stroke-linecap="round" stroke-linejoin="round"/>
<path d="M77.1851 35.5023C77.1851 35.5023 77.4951 39.6923 77.7851 43.6023" stroke="#CAA57B" stroke-width="1.5" stroke-linecap="round" stroke-linejoin="round"/>
<path d="M78.0351 47.0723L78.2651 50.2523L73.5251 53.4123L71.4151 48.6723L67.4851 49.6023" stroke="#CAA57B" stroke-width="1.5" stroke-linecap="round" stroke-linejoin="round"/>
<path d="M34.2749 15.1223C37.7432 15.1223 40.5549 12.3106 40.5549 8.84226C40.5549 5.37391 37.7432 2.56226 34.2749 2.56226C30.8065 2.56226 27.9949 5.37391 27.9949 8.84226C27.9949 12.3106 30.8065 15.1223 34.2749 15.1223Z" stroke="#CAA57B" stroke-width="1.5" stroke-linecap="round" stroke-linejoin="round"/>
<path d="M53.365 31.2223C53.215 31.3923 53.025 31.5623 52.835 31.6923L41.605 39.3923L41.405 39.1023L41.255 39.2023L35.985 31.5123L32.555 44.2723L41.205 50.9323H41.225L45.005 62.2423L46.125 65.6023C46.695 67.3023 46.065 69.2523 44.505 70.1523C42.375 71.4023 39.745 70.3423 39.005 68.1023L34.805 55.5223L23.885 47.4623L20.065 61.7123L12.695 69.8623C11.305 71.4123 8.90498 71.5323 7.36498 70.1323C5.81498 68.7323 5.69498 66.3423 7.09498 64.8023L13.245 57.9923L16.595 45.5023L18.345 38.9723L23.625 20.1723C24.705 18.5123 26.755 17.6623 28.765 18.2023L34.315 19.6823C34.585 19.7523 34.835 19.8423 35.075 19.9723C35.195 20.0223 35.295 20.0723 35.415 20.1323C36.295 20.6323 36.975 21.3923 37.385 22.2923C38.025 23.7023 38.785 25.0623 39.665 26.3423L42.995 31.2123L49.475 26.7623C49.845 26.5123 50.275 26.3423 50.695 26.2723C51.795 26.1023 52.945 26.5623 53.615 27.5323C54.405 28.6923 54.265 30.1923 53.375 31.1923L53.365 31.2223Z" stroke="#CAA57B" stroke-width="1.5" stroke-linecap="round" stroke-linejoin="round"/>
<path d="M73.435 67.9423L53.365 31.2223" stroke="#CAA57B" stroke-width="1.5" stroke-linecap="round" stroke-linejoin="round"/>
<path d="M50.6949 26.3023L46.7649 19.1223" stroke="#CAA57B" stroke-width="1.5" stroke-linecap="round" stroke-linejoin="round"/>
<path d="M30.125 53.2223V67.9423" stroke="#CAA57B" stroke-width="1.5" stroke-linecap="round" stroke-linejoin="round"/>
<path d="M24.165 18.2523L23.625 20.1723L18.345 38.9723L17.005 43.7623L5.01497 40.3923C2.42497 39.6623 0.914974 36.9723 1.64497 34.3923L6.43497 17.2923C7.50497 13.5223 11.415 11.3023 15.195 12.3723L21.925 14.2623C23.655 14.7523 24.645 16.5323 24.175 18.2423L24.165 18.2523Z" stroke="#CAA57B" stroke-width="1.5" stroke-linecap="round" stroke-linejoin="round"/>
</g>
<defs>
<clipPath id="clip0_129_592">
<rect width="102.59" height="71.03" fill="white" transform="translate(0.705078 0.832275)"/>
</clipPath>
</defs>
</svg>
