<svg width="68" height="75" viewBox="0 0 68 75" fill="none" xmlns="http://www.w3.org/2000/svg">
<g clip-path="url(#clip0_68_1248)">
<path d="M66.41 33.6202H66.23V5.66016C66.23 5.25016 65.9 4.91016 65.48 4.91016H7.69003C7.28003 4.91016 6.94003 5.25016 6.94003 5.66016V33.6202H6.78003C6.36003 33.6202 6.03003 33.9502 6.03003 34.3702V41.6202C6.03003 42.0402 6.36003 42.3702 6.78003 42.3702H6.94003V56.6502C6.94003 57.0702 7.28003 57.4002 7.69003 57.4002H12.97V61.5802H11.04C10.62 61.5802 10.29 61.9202 10.29 62.3302V67.4302C10.29 67.8502 10.62 68.1802 11.04 68.1802H16.74V72.3502C16.74 73.6602 17.81 74.7202 19.12 74.7202H23.33C24.64 74.7202 25.7 73.6602 25.7 72.3502V68.1802H47.47V72.3502C47.47 73.6602 48.54 74.7202 49.85 74.7202H54.06C55.37 74.7202 56.43 73.6602 56.43 72.3502V68.1802H62.15C62.56 68.1802 62.9 67.8502 62.9 67.4302V62.3302C62.9 61.9202 62.56 61.5802 62.15 61.5802H60.2V57.4002H65.48C65.9 57.4002 66.23 57.0702 66.23 56.6502V42.3702H66.41C66.82 42.3702 67.16 42.0402 67.16 41.6202V34.3702C67.16 33.9502 66.82 33.6202 66.41 33.6202Z" fill="#F2F1E3"/>
<path d="M11 36.0702V39.8102H50.12V19.1202C50.12 16.7402 48.18 14.8102 45.81 14.8102H15.31C12.93 14.8102 11.01 16.7402 11.01 19.1202V29.5702" stroke="#CAA57B" stroke-width="1.5" stroke-linecap="round" stroke-linejoin="round"/>
<path d="M11 28.2302V19.1202C11 16.7402 12.93 14.8102 15.3 14.8102H45.81C48.18 14.8102 50.12 16.7402 50.12 19.1202V39.8102H11V37.6702" stroke="#CAA57B" stroke-width="1.5" stroke-linecap="round" stroke-linejoin="round"/>
<path d="M4.42004 36.7101H7.66004" stroke="#CAA57B" stroke-width="1.5" stroke-linecap="round" stroke-linejoin="round"/>
<path d="M56.7101 36.7101H53.4601" stroke="#CAA57B" stroke-width="1.5" stroke-linecap="round" stroke-linejoin="round"/>
<path d="M24.91 39.8101L22.46 35.6001" stroke="#CAA57B" stroke-width="1.5" stroke-linecap="round" stroke-linejoin="round"/>
<path d="M13.33 35.6001H28.25" stroke="#CAA57B" stroke-width="1.5" stroke-linecap="round" stroke-linejoin="round"/>
<path d="M44.45 39.8101L42 35.6001" stroke="#CAA57B" stroke-width="1.5" stroke-linecap="round" stroke-linejoin="round"/>
<path d="M32.87 35.6001H47.79" stroke="#CAA57B" stroke-width="1.5" stroke-linecap="round" stroke-linejoin="round"/>
<path d="M56.12 57.4202H5.01001V62.5202H56.12V57.4202Z" stroke="#CAA57B" stroke-width="1.5" stroke-linecap="round" stroke-linejoin="round"/>
<path d="M11.47 62.5101H18.93V67.4301C18.93 68.3201 18.2 69.0501 17.31 69.0501H13.09C12.2 69.0501 11.47 68.3201 11.47 67.4301V62.5101Z" stroke="#CAA57B" stroke-width="1.5" stroke-linecap="round" stroke-linejoin="round"/>
<path d="M42.2 62.5101H49.66V67.4301C49.66 68.3201 48.93 69.0501 48.04 69.0501H43.82C42.93 69.0501 42.2 68.3201 42.2 67.4301V62.5101Z" stroke="#CAA57B" stroke-width="1.5" stroke-linecap="round" stroke-linejoin="round"/>
<path d="M4.42 29.4501H0.75V36.7101H4.42V29.4501Z" stroke="#CAA57B" stroke-width="1.5" stroke-linecap="round" stroke-linejoin="round"/>
<path d="M60.38 29.4501H56.7V36.7101H60.38V29.4501Z" stroke="#CAA57B" stroke-width="1.5" stroke-linecap="round" stroke-linejoin="round"/>
<path d="M48.18 49.0502H36.6V54.4102H48.18V49.0502Z" stroke="#CAA57B" stroke-width="1.5" stroke-linecap="round" stroke-linejoin="round"/>
<path d="M24.5199 49.0502H12.9399V54.4102H24.5199V49.0502Z" stroke="#CAA57B" stroke-width="1.5" stroke-linecap="round" stroke-linejoin="round"/>
<path d="M11 26.0701V19.1301C11 16.7501 12.93 14.8201 15.3 14.8201H45.81C48.18 14.8201 50.1199 16.7501 50.1199 19.1301V39.8201H11V35.2501M45.81 11.5201H15.31C11.12 11.5201 7.69995 14.9201 7.69995 19.1301V57.4201H53.43V19.1301C53.43 14.9201 50.03 11.5201 45.82 11.5201H45.81ZM24.52 54.4101H12.94V49.0501H24.52V54.4101ZM48.18 54.4101H36.5999V49.0501H48.18V54.4101Z" stroke="#CAA57B" stroke-width="1.5" stroke-linecap="round" stroke-linejoin="round"/>
<path d="M1.66003 10.4301V0.750122H42.65" stroke="#CAA57B" stroke-width="1.5" stroke-linecap="round" stroke-linejoin="round"/>
<path d="M52.91 0.750122H59.46V29.4501H56.71V36.7101H59.46V51.7401H53.43V19.1301C53.43 14.9201 50.03 11.5201 45.82 11.5201H15.31C11.12 11.5201 7.70003 14.9201 7.70003 19.1301V51.7401H1.66003V36.7101H4.41003V29.4501H1.66003V20.9501" stroke="#CAA57B" stroke-width="1.5" stroke-linecap="round" stroke-linejoin="round"/>
</g>
<defs>
<clipPath id="clip0_68_1248">
<rect width="67.16" height="74.72" fill="white"/>
</clipPath>
</defs>
</svg>
