<svg width="101" height="88" viewBox="0 0 101 88" fill="none" xmlns="http://www.w3.org/2000/svg">
<g clip-path="url(#clip0_61_863)">
<path d="M99.4301 43.1499C98.1501 43.3399 96.9001 43.5799 95.7401 43.8599C95.3901 43.9399 95.0501 44.0399 94.7101 44.1299L94.7601 41.0199C94.7601 40.8199 94.6901 40.6299 94.5501 40.4799C94.4201 40.3399 94.2301 40.2599 94.0301 40.2599L90.5601 40.1999C89.7401 33.9699 87.3901 28.0199 83.7201 22.8999L86.2101 20.4899C86.3501 20.3499 86.4301 20.1599 86.4301 19.9599C86.4401 19.7599 86.3601 19.5699 86.2201 19.4199L79.3001 12.2699C79.1701 12.1299 78.9801 12.0499 78.7801 12.0499C78.5801 12.0699 78.3901 12.1199 78.2401 12.2599L75.7501 14.6799C70.7401 10.8499 64.8601 8.30989 58.6801 7.28989L58.7401 3.80989C58.7401 3.60989 58.6601 3.41989 58.5201 3.26989C58.3901 3.12989 58.2001 3.04989 58.0001 3.04989L48.0601 2.88989C47.8501 2.89989 47.6701 2.95989 47.5201 3.09989C47.3801 3.23989 47.3001 3.42989 47.3001 3.62989L47.2501 7.09989C41.0201 7.91989 35.0501 10.2799 29.9401 13.9399L27.5201 11.4399C27.2401 11.1499 26.7601 11.1399 26.4601 11.4299L19.3201 18.3399C19.1801 18.4799 19.1001 18.6699 19.0901 18.8599C19.0901 19.0599 19.1701 19.2599 19.3101 19.3999L21.7301 21.8999C17.9001 26.8899 15.3501 32.7699 14.3301 38.9699L10.8501 38.9099C10.6601 38.8999 10.4601 38.9799 10.3101 39.1199C10.1701 39.2599 10.0901 39.4499 10.0901 39.6399L9.92009 49.5799C9.92009 49.9999 10.2501 50.3399 10.6601 50.3499L14.1401 50.4099C14.9601 56.6399 17.3201 62.5899 20.9901 67.6999L18.4801 70.1199C18.3401 70.2599 18.2601 70.4399 18.2601 70.6399C18.2501 70.8399 18.3301 71.0399 18.4701 71.1799L25.3901 78.3199C25.5301 78.4699 25.7301 78.5499 25.9201 78.5499C26.1101 78.5499 26.3001 78.4799 26.4501 78.3399L28.9401 75.9199C31.1701 77.6399 33.5801 79.0999 36.1201 80.2599C36.0901 80.2699 36.0701 80.2799 36.0401 80.2899C34.3701 80.8199 32.7801 81.2099 31.1701 81.4799C29.5901 81.7399 27.9601 81.8799 26.3201 81.8899C24.7201 81.8999 23.0801 81.7699 21.4701 81.5199C19.8901 81.2699 18.2501 80.8899 16.6101 80.3699C15.0201 79.8799 13.3801 79.2499 11.7301 78.4799C10.1301 77.7499 8.48009 76.8799 6.82009 75.8799C6.40009 75.6299 5.99009 75.3799 5.56009 75.1099C5.21009 74.8899 4.75009 74.9999 4.53009 75.3499C4.31009 75.6999 4.42009 76.1599 4.77009 76.3799C5.08009 76.5799 5.39009 76.7599 5.70009 76.9499V85.1099C5.70009 85.5199 6.03009 85.8599 6.45009 85.8599C6.87009 85.8599 7.20009 85.5199 7.20009 85.1099V77.8099C8.36009 78.4799 9.52009 79.0999 10.6701 79.6299V85.1099C10.6701 85.5199 11.0001 85.8599 11.4201 85.8599C11.8401 85.8599 12.1701 85.5199 12.1701 85.1099V80.2999C13.3301 80.7999 14.5001 81.2499 15.6301 81.6199V85.1099C15.6301 85.5199 15.9701 85.8599 16.3801 85.8599C16.7901 85.8599 17.1301 85.5199 17.1301 85.1099V82.0699C18.3101 82.3999 19.4701 82.6699 20.6101 82.8699V85.1099C20.6101 85.5199 20.9401 85.8599 21.3601 85.8599C21.7801 85.8599 22.1101 85.5199 22.1101 85.1099V83.0999C23.2601 83.2499 24.4201 83.3399 25.5701 83.3599V85.1099C25.5701 85.5199 25.9101 85.8599 26.3201 85.8599C26.7301 85.8599 27.0701 85.5199 27.0701 85.1099V83.3499C28.2401 83.3199 29.4001 83.2199 30.5501 83.0599V85.1099C30.5501 85.5199 30.8801 85.8599 31.3001 85.8599C31.7201 85.8599 32.0501 85.5199 32.0501 85.1099V82.8299C33.1901 82.6199 34.3501 82.3399 35.5101 81.9999V85.1099C35.5101 85.5199 35.8501 85.8599 36.2601 85.8599C36.6701 85.8599 37.0101 85.5199 37.0101 85.1099V81.5399C37.3901 81.4099 37.7701 81.2899 38.1501 81.1499H38.1601C38.8901 81.4399 39.6701 81.7199 40.4901 81.9899V85.1099C40.4901 85.5199 40.8201 85.8599 41.2401 85.8599C41.6601 85.8599 41.9901 85.5199 41.9901 85.1099V82.4399C43.1401 82.7599 44.3001 83.0199 45.4501 83.2199V85.1099C45.4501 85.4399 45.6701 85.7099 45.9701 85.8099L45.9501 86.7899C45.9501 86.9899 46.0301 87.1799 46.1701 87.3299C46.3001 87.4699 46.4901 87.5499 46.6901 87.5599L56.6301 87.7199H56.6501C56.8401 87.7199 57.0301 87.6399 57.1701 87.4999C57.3101 87.3699 57.3901 87.1799 57.4001 86.9799L57.4501 83.4999C58.4301 83.3799 59.4001 83.2099 60.3601 83.0099V85.1099C60.3601 85.5199 60.7001 85.8599 61.1101 85.8599C61.5201 85.8599 61.8601 85.5199 61.8601 85.1099V82.6599C63.0201 82.3699 64.1801 82.0099 65.3401 81.5899V85.1099C65.3401 85.5199 65.6701 85.8599 66.0901 85.8599C66.5101 85.8599 66.8401 85.5199 66.8401 85.1099V81.0199C68.0401 80.5399 69.1901 79.9999 70.3001 79.4199V85.1099C70.3001 85.5199 70.6401 85.8599 71.0501 85.8599C71.4601 85.8599 71.8001 85.5199 71.8001 85.1099V78.5799C72.8401 77.9699 73.8201 77.3299 74.7501 76.6599L75.2801 77.1999V85.1099C75.2801 85.5199 75.6101 85.8599 76.0301 85.8599C76.4501 85.8599 76.7801 85.5199 76.7801 85.1099V78.7599L77.1701 79.1599C77.3001 79.2999 77.4901 79.3799 77.6901 79.3899H77.7001C77.9001 79.3899 78.0901 79.3099 78.2301 79.1799L80.2401 77.2299V85.1099C80.2401 85.5199 80.5801 85.8599 80.9901 85.8599C81.4001 85.8599 81.7401 85.5199 81.7401 85.1099V75.7799L85.2201 72.4099V85.1099C85.2201 85.5199 85.5501 85.8599 85.9701 85.8599C86.3901 85.8599 86.7201 85.5199 86.7201 85.1099V62.7599C88.3401 59.5699 89.5001 56.2099 90.1801 52.7299V85.1099C90.1801 85.5199 90.5201 85.8599 90.9301 85.8599C91.3401 85.8599 91.6801 85.5199 91.6801 85.1099V51.6599L93.8401 51.6999H93.8601C94.0501 51.6999 94.2401 51.6199 94.3801 51.4899C94.5201 51.3499 94.6001 51.1599 94.6101 50.9599L94.6901 45.6899C94.8401 45.6499 95.0001 45.6099 95.1501 45.5699V85.1099C95.1501 85.5199 95.4901 85.8599 95.9001 85.8599C96.3101 85.8599 96.6501 85.5199 96.6501 85.1099V45.1999C97.6201 44.9799 98.6101 44.7899 99.6401 44.6399C100.05 44.5799 100.34 44.1999 100.28 43.7899C100.22 43.3799 99.8301 43.0999 99.4301 43.1499ZM53.0901 12.3399L57.8401 12.4199H57.8601C57.9301 12.4199 58.0001 12.3999 58.0701 12.3799C58.1401 12.3599 58.2001 12.3399 58.2601 12.2999C58.3001 12.2799 58.3401 12.2399 58.3801 12.2099C58.5201 12.0699 58.6001 11.8799 58.6101 11.6799L58.6601 8.79989C64.4501 9.78989 69.9401 12.1699 74.6601 15.7299L72.5901 17.7399C72.3001 18.0299 72.2901 18.4999 72.5901 18.7999L75.1501 21.4499L57.5701 39.0299C56.2901 37.9699 54.7501 37.3299 53.1001 37.1899V12.3399H53.0901ZM22.7801 22.9699L24.7801 25.0399C24.9101 25.1799 25.1001 25.2599 25.3001 25.2699C25.5201 25.2699 25.6901 25.1899 25.8401 25.0499L28.4801 22.4899L46.0801 40.0899C45.0101 41.3599 44.3801 42.8999 44.2401 44.5499H19.3801L19.4501 39.7899C19.4501 39.5899 19.3801 39.3999 19.2401 39.2499C19.1101 39.1099 18.9201 39.0299 18.7201 39.0299L15.8401 38.9799C16.8401 33.1799 19.2201 27.6799 22.7801 22.9699ZM28.5101 68.0799L25.2001 64.6599C24.9101 64.3699 24.4401 64.3599 24.1401 64.6499L22.0701 66.6499C18.6701 61.8299 16.4601 56.2599 15.6601 50.4299L18.5301 50.4799H18.5501C18.7401 50.4799 18.9301 50.3999 19.0701 50.2599C19.2101 50.1299 19.2901 49.9399 19.3001 49.7399L19.3601 46.0599H44.2401C44.3801 47.6999 45.0101 49.2399 46.0801 50.5099L28.5101 68.0799ZM40.4901 80.4099C40.4001 80.3799 40.3101 80.3499 40.2301 80.3199C40.3201 80.2799 40.4001 80.2399 40.4901 80.1999V80.4099ZM45.4501 81.6899C44.2801 81.4799 43.1201 81.1999 41.9901 80.8599V79.5099C43.1201 78.9599 44.2701 78.3699 45.4501 77.6899V81.6899ZM50.4201 78.2399L46.9501 78.1799V76.7999C48.0901 76.1199 49.2601 75.3699 50.4201 74.5799V78.2399ZM51.5901 71.9599C51.3101 72.1599 51.0301 72.3599 50.7401 72.5599C49.0801 73.7299 47.4301 74.7999 45.8201 75.7499C44.1201 76.7699 42.5101 77.6299 40.9201 78.3699C39.9701 78.8099 39.0501 79.1899 38.1701 79.5399C35.2701 78.3399 32.5401 76.7699 30.0301 74.8699L32.1001 72.8599C32.3901 72.5799 32.4001 72.0999 32.1101 71.8099L29.5501 69.1699L47.1401 51.5799C48.4201 52.6399 49.9501 53.2799 51.5901 53.4199V71.9599ZM51.5901 37.1799C49.9501 37.3199 48.4201 37.9599 47.1401 39.0199L29.5701 21.4499L32.9801 18.1499C33.2701 17.8599 33.2801 17.3799 32.9901 17.0899L31.0001 15.0199C35.8201 11.6099 41.3901 9.40989 47.2201 8.60989L47.1801 11.4799C47.1701 11.6799 47.2501 11.8799 47.3901 12.0199C47.5201 12.1599 47.7101 12.2399 47.9101 12.2499L51.5901 12.3099V37.1799ZM55.4001 78.3299L53.0901 78.2899V72.7299C53.9001 72.1499 54.6601 71.5799 55.4001 71.0299V78.3299ZM60.3601 81.4699C59.4101 81.6799 58.4401 81.8599 57.4701 81.9899L57.5101 79.1099C57.5101 78.9099 57.4401 78.7199 57.3001 78.5699C57.2701 78.5399 57.2301 78.4999 57.1901 78.4799C57.1401 78.4399 57.0701 78.4099 57.0101 78.3899C56.9801 78.3699 56.9401 78.3599 56.9001 78.3599V69.8799C58.1001 68.9599 59.2801 68.0299 60.3601 67.1699V81.4699ZM65.3401 79.9899C64.1901 80.4199 63.0201 80.7899 61.8601 81.0999V65.9599L63.7101 64.4699C64.2501 64.0399 64.7901 63.5999 65.3401 63.1699V79.9899ZM66.1001 60.6499L65.6201 61.0299C64.6601 61.7899 63.7101 62.5499 62.7701 63.3199L60.6501 65.0199C59.1801 66.1899 57.4501 67.5799 55.6801 68.9199C54.8601 69.5599 54.0001 70.2099 53.0901 70.8699V53.4199C54.7401 53.2799 56.2801 52.6399 57.5601 51.5799L66.4001 60.4099C66.3001 60.4899 66.2001 60.5699 66.1001 60.6499ZM70.3001 77.7099C69.2001 78.3199 68.0401 78.8899 66.8401 79.3999V61.9799L67.0301 61.8199C67.1801 61.7099 67.3201 61.5899 67.4701 61.4799L70.3001 64.3199V77.7099ZM70.3001 62.1899L68.6601 60.5399C69.2001 60.0999 69.7501 59.6799 70.3001 59.2499V62.1899ZM71.8001 76.8299V73.6199L73.7001 75.5799C73.1001 75.9999 72.4601 76.4199 71.8001 76.8299ZM71.8001 72.3499V65.8099L75.1301 69.1399L71.8001 72.3499ZM75.2801 67.1599L71.8001 63.6899V58.0899C73.0101 57.1799 74.1501 56.3499 75.2801 55.5599V67.1599ZM80.2401 65.8799L79.9101 65.5399C79.6301 65.2499 79.1501 65.2399 78.8501 65.5299L76.7801 67.5299V54.5199C77.9501 53.7099 79.1101 52.9599 80.2401 52.2499V65.8799ZM85.2201 71.0299L82.9701 68.7099C83.7801 67.6599 84.5301 66.5599 85.2201 65.4399V71.0299ZM85.2201 62.4099C84.2701 64.2399 83.1701 65.9799 81.9201 67.6199L81.7401 67.4399V51.3499C82.8901 50.6699 84.0501 50.0399 85.2201 49.4499V62.4099ZM85.2901 47.7099C83.7401 48.4899 82.1701 49.3399 80.6101 50.2699C79.0001 51.2299 77.3101 52.3199 75.6001 53.5099C73.9901 54.6099 72.3601 55.7899 70.6001 57.1299C69.5801 57.9099 68.5801 58.6899 67.5901 59.4799L58.6201 50.5099C59.6901 49.2399 60.3301 47.6999 60.4701 46.0599H85.3201L85.2901 47.7099ZM86.1601 40.1199C85.9601 40.1299 85.7701 40.1899 85.6201 40.3299C85.4801 40.4699 85.4001 40.6599 85.4001 40.8499L85.3401 44.5499H60.4701C60.3301 42.8999 59.6901 41.3599 58.6201 40.0899L76.1901 22.5199L79.4901 25.9299C79.6301 26.0799 79.8301 26.1599 80.0301 26.1599C80.2101 26.1599 80.4001 26.0899 80.5501 25.9499L82.6201 23.9499C86.0301 28.7699 88.2401 34.3399 89.0401 40.1599L86.1601 40.1199ZM86.7201 59.1299V51.5699L88.8601 51.6099C88.4201 54.1899 87.7001 56.6999 86.7201 59.1299Z" fill="#F2F1E3"/>
<path d="M80.4301 68.8399L76.5801 72.5699L73.2901 75.7499L71.6101 74.0099L70.4301 72.7899L67.8201 70.0999L71.6101 66.4299L71.7801 66.2599L74.9601 63.1899L76.5801 64.8599L77.5701 65.8799L80.4301 68.8399Z" stroke="#CAA57B" stroke-width="1.5" stroke-linecap="round" stroke-linejoin="round"/>
<path d="M28.0399 14.7301L24.0799 18.5601L20.8999 21.6401L18.2999 18.9501L15.4299 15.9901L22.5699 9.08008L25.4399 12.0401L28.0399 14.7301Z" stroke="#CAA57B" stroke-width="1.5" stroke-linecap="round" stroke-linejoin="round"/>
<path d="M14.5901 24.5899C15.6601 22.5899 16.9001 20.7099 18.3001 18.9499L20.9001 21.6399L24.0801 18.5599L28.0401 14.7299L25.4401 12.0399C30.6201 8.19988 36.8201 5.64988 43.5701 4.87988L43.5101 8.61988L47.9301 8.68988L53.4401 8.77988L53.5001 5.03988C60.1901 6.01988 66.3201 8.76988 71.3901 12.7799L68.7001 15.3899L71.7801 18.5699L75.6101 22.5299L78.3101 19.9199C80.0101 22.2099 81.4601 24.6999 82.6101 27.3499" stroke="#CAA57B" stroke-width="1.5" stroke-linecap="round" stroke-linejoin="round"/>
<path d="M84.0199 31.14C84.7099 33.36 85.2099 35.67 85.4799 38.05L81.7299 37.9901L81.6599 42.42L81.6099 45.3L81.5699 47.93L85.3199 47.9901C84.7099 52.1601 83.4099 56.1 81.5499 59.71C80.4199 61.9 79.0799 63.97 77.5699 65.88L76.5799 64.8601L74.9599 63.19L71.7799 66.2601L71.6099 66.43L67.8199 70.1L70.4299 72.7901C69.2199 73.6901 67.9499 74.5101 66.6399 75.2601C65.0499 76.1701 63.3899 76.96 61.6699 77.64C60.0599 78.26 58.3999 78.78 56.6999 79.18C55.2599 79.53 53.7899 79.79 52.2899 79.96L52.3499 76.21H51.7299L47.9299 76.14L46.7599 76.1201L42.4199 76.0501L42.3599 79.8001C42.1699 79.7701 41.9799 79.75 41.7899 79.71C40.0899 79.44 38.4299 79.0501 36.8199 78.5501C35.7799 78.2301 34.7499 77.87 33.7499 77.46C30.3899 76.1 27.2699 74.2701 24.4699 72.0501L27.1599 69.4401L24.0899 66.2601L20.2499 62.3L17.5599 64.9001C13.7099 59.7201 11.1599 53.52 10.3899 46.78L14.1299 46.84L14.1999 42.42L14.2899 36.9001L10.5499 36.84C10.9799 33.96 11.7299 31.18 12.7599 28.55" stroke="#CAA57B" stroke-width="1.5" stroke-linecap="round" stroke-linejoin="round"/>
<path d="M89.6001 38.12L89.5301 42.22L89.4401 48.06L86.5201 48.01L85.3201 47.99L81.5701 47.93L81.6101 45.3L81.6601 42.42L81.7301 37.99L85.4801 38.05L89.6001 38.12Z" stroke="#CAA57B" stroke-width="1.5" stroke-linecap="round" stroke-linejoin="round"/>
<path d="M0.75 72.8601C1.18 73.1301 1.6 73.39 2.03 73.64C3.72 74.66 5.38 75.54 7 76.28C8.69 77.06 10.35 77.7 11.97 78.2C13.66 78.73 15.32 79.1201 16.94 79.3701C18.64 79.6401 20.29 79.76 21.91 79.75C23.6 79.74 25.25 79.6001 26.88 79.3301C28.57 79.0501 30.22 78.6401 31.85 78.1201C32.49 77.9201 33.12 77.7 33.75 77.46C34.78 77.07 35.81 76.6301 36.82 76.1601C38.5 75.3801 40.15 74.4901 41.79 73.5101C43.46 72.5201 45.12 71.4401 46.76 70.2901C47.15 70.0201 47.54 69.74 47.93 69.46C49.2 68.55 50.47 67.61 51.73 66.63C53.39 65.36 55.04 64.0501 56.7 62.7201C58.35 61.4001 60 60.06 61.67 58.73C62.15 58.35 62.63 57.96 63.11 57.59C64.28 56.66 65.45 55.75 66.64 54.84C68.27 53.6 69.93 52.3901 71.61 51.2401C73.24 50.1101 74.9 49.03 76.58 48.03C78.21 47.05 79.86 46.1501 81.55 45.3301L81.61 45.3" stroke="#CAA57B" stroke-width="1.5" stroke-linecap="round" stroke-linejoin="round"/>
<path d="M89.53 42.22C90.18 42.04 90.83 41.86 91.49 41.71C92.68 41.42 93.89 41.19 95.12 41.01" stroke="#CAA57B" stroke-width="1.5" stroke-linecap="round" stroke-linejoin="round"/>
<path d="M91.49 82.22V41.71" stroke="#CAA57B" stroke-width="1.5" stroke-linecap="round" stroke-linejoin="round"/>
<path d="M86.52 82.22V48.01" stroke="#CAA57B" stroke-width="1.5" stroke-linecap="round" stroke-linejoin="round"/>
<path d="M81.55 82.2201V45.3301" stroke="#CAA57B" stroke-width="1.5" stroke-linecap="round" stroke-linejoin="round"/>
<path d="M76.5801 64.86V48.03" stroke="#CAA57B" stroke-width="1.5" stroke-linecap="round" stroke-linejoin="round"/>
<path d="M76.5801 82.2199V72.5699" stroke="#CAA57B" stroke-width="1.5" stroke-linecap="round" stroke-linejoin="round"/>
<path d="M71.6101 51.24V66.09V66.43" stroke="#CAA57B" stroke-width="1.5" stroke-linecap="round" stroke-linejoin="round"/>
<path d="M71.6101 82.22V74.01" stroke="#CAA57B" stroke-width="1.5" stroke-linecap="round" stroke-linejoin="round"/>
<path d="M66.6399 82.2201V54.8401" stroke="#CAA57B" stroke-width="1.5" stroke-linecap="round" stroke-linejoin="round"/>
<path d="M61.6699 82.22V73.48" stroke="#CAA57B" stroke-width="1.5" stroke-linecap="round" stroke-linejoin="round"/>
<path d="M61.6699 67.85V58.73" stroke="#CAA57B" stroke-width="1.5" stroke-linecap="round" stroke-linejoin="round"/>
<path d="M56.7 82.22V62.72" stroke="#CAA57B" stroke-width="1.5" stroke-linecap="round" stroke-linejoin="round"/>
<path d="M51.73 76.2V66.63" stroke="#CAA57B" stroke-width="1.5" stroke-linecap="round" stroke-linejoin="round"/>
<path d="M46.76 76.12V70.29" stroke="#CAA57B" stroke-width="1.5" stroke-linecap="round" stroke-linejoin="round"/>
<path d="M41.79 82.22V73.51" stroke="#CAA57B" stroke-width="1.5" stroke-linecap="round" stroke-linejoin="round"/>
<path d="M36.8201 82.22V76.16" stroke="#CAA57B" stroke-width="1.5" stroke-linecap="round" stroke-linejoin="round"/>
<path d="M31.8501 82.22V78.12" stroke="#CAA57B" stroke-width="1.5" stroke-linecap="round" stroke-linejoin="round"/>
<path d="M26.8799 82.22V79.33" stroke="#CAA57B" stroke-width="1.5" stroke-linecap="round" stroke-linejoin="round"/>
<path d="M21.9099 82.22V79.75" stroke="#CAA57B" stroke-width="1.5" stroke-linecap="round" stroke-linejoin="round"/>
<path d="M16.9399 82.22V79.37" stroke="#CAA57B" stroke-width="1.5" stroke-linecap="round" stroke-linejoin="round"/>
<path d="M11.97 82.22V78.2" stroke="#CAA57B" stroke-width="1.5" stroke-linecap="round" stroke-linejoin="round"/>
<path d="M7 82.22V76.28" stroke="#CAA57B" stroke-width="1.5" stroke-linecap="round" stroke-linejoin="round"/>
<path d="M2.03003 82.22V73.64" stroke="#CAA57B" stroke-width="1.5" stroke-linecap="round" stroke-linejoin="round"/>
<path d="M52.35 76.21L52.29 79.96L52.23 84.08L42.29 83.92L42.36 79.8L42.42 76.05L46.76 76.12L47.93 76.14L51.73 76.2L52.35 76.21Z" stroke="#CAA57B" stroke-width="1.5" stroke-linecap="round" stroke-linejoin="round"/>
<path d="M27.1601 69.4401L24.4701 72.0501L21.5101 74.9101L14.5901 67.77L17.5601 64.9001L20.2501 62.3L24.0901 66.2601L27.1601 69.4401Z" stroke="#CAA57B" stroke-width="1.5" stroke-linecap="round" stroke-linejoin="round"/>
<path d="M14.29 36.9L14.2 42.42L14.13 46.84L10.39 46.78L6.26001 46.71L6.42001 36.77L10.55 36.84L14.29 36.9Z" stroke="#CAA57B" stroke-width="1.5" stroke-linecap="round" stroke-linejoin="round"/>
<path d="M53.57 0.91L53.5 5.04L53.44 8.78L47.93 8.69L43.51 8.62L43.57 4.88L43.63 0.75L53.57 0.91Z" stroke="#CAA57B" stroke-width="1.5" stroke-linecap="round" stroke-linejoin="round"/>
<path d="M81.27 17.0599L78.31 19.9199L75.61 22.5299L71.78 18.5699L68.7 15.3899L71.39 12.7799L74.35 9.90991L81.27 17.0599Z" stroke="#CAA57B" stroke-width="1.5" stroke-linecap="round" stroke-linejoin="round"/>
<path d="M47.9299 35.0099V8.68994" stroke="#CAA57B" stroke-width="1.5" stroke-linecap="round" stroke-linejoin="round"/>
<path d="M55.34 42.42C55.34 44.46 54.51 46.31 53.17 47.65C51.83 48.99 49.97 49.82 47.93 49.82C45.89 49.82 44.04 48.99 42.7 47.65C41.36 46.31 40.53 44.46 40.53 42.42C40.53 40.38 41.36 38.52 42.7 37.18C44.04 35.84 45.89 35.01 47.93 35.01C49.97 35.01 51.83 35.84 53.17 37.18C54.51 38.52 55.34 40.37 55.34 42.42Z" stroke="#CAA57B" stroke-width="1.5" stroke-linecap="round" stroke-linejoin="round"/>
<path d="M51.4399 42.4199C51.4399 43.3899 51.0499 44.2599 50.4099 44.8999C49.7699 45.5399 48.8999 45.9299 47.9299 45.9299C46.9599 45.9299 46.0899 45.5399 45.4499 44.8999C44.8099 44.2599 44.4199 43.3899 44.4199 42.4199C44.4199 41.4499 44.8099 40.5699 45.4499 39.9399C46.0799 39.3099 46.9599 38.9099 47.9299 38.9099C48.8999 38.9099 49.7799 39.2999 50.4099 39.9399C51.0399 40.5699 51.4399 41.4499 51.4399 42.4199Z" stroke="#CAA57B" stroke-width="1.5" stroke-linecap="round" stroke-linejoin="round"/>
<path d="M71.7799 18.5701L53.1699 37.1801" stroke="#CAA57B" stroke-width="1.5" stroke-linecap="round" stroke-linejoin="round"/>
<path d="M81.6599 42.4199H62.6899" stroke="#CAA57B" stroke-width="1.5" stroke-linecap="round" stroke-linejoin="round"/>
<path d="M58.8101 42.4199H55.3401" stroke="#CAA57B" stroke-width="1.5" stroke-linecap="round" stroke-linejoin="round"/>
<path d="M53.1699 47.6499L63.1099 57.5899L66.6399 61.1199L71.6099 66.0899L71.7799 66.2599" stroke="#CAA57B" stroke-width="1.5" stroke-linecap="round" stroke-linejoin="round"/>
<path d="M47.9299 49.8201V69.4601V76.1401" stroke="#CAA57B" stroke-width="1.5" stroke-linecap="round" stroke-linejoin="round"/>
<path d="M42.6999 47.6499L32.8799 57.4699" stroke="#CAA57B" stroke-width="1.5" stroke-linecap="round" stroke-linejoin="round"/>
<path d="M28.5101 61.8401L24.0901 66.2601" stroke="#CAA57B" stroke-width="1.5" stroke-linecap="round" stroke-linejoin="round"/>
<path d="M40.5299 42.4199H14.2" stroke="#CAA57B" stroke-width="1.5" stroke-linecap="round" stroke-linejoin="round"/>
<path d="M42.7001 37.1801L33.6101 28.0901" stroke="#CAA57B" stroke-width="1.5" stroke-linecap="round" stroke-linejoin="round"/>
<path d="M30.6201 25.1001L24.0801 18.5601" stroke="#CAA57B" stroke-width="1.5" stroke-linecap="round" stroke-linejoin="round"/>
</g>
<defs>
<clipPath id="clip0_61_863">
<rect width="100.29" height="87.72" fill="white"/>
</clipPath>
</defs>
</svg>
