<svg width="91" height="79" viewBox="0 0 91 79" fill="none" xmlns="http://www.w3.org/2000/svg">
<g clip-path="url(#clip0_61_929)">
<path d="M48.4192 20.767C48.4192 22.4476 49.0715 23.3147 49.6489 24.0854C50.1515 24.7598 50.5578 25.2843 50.5578 26.4297C50.5578 26.8686 50.9214 27.2325 51.3598 27.2325C51.7983 27.2325 52.1618 26.8686 52.1618 26.4297C52.1618 24.7491 51.5096 23.882 50.9321 23.1113C50.4295 22.4369 50.0232 21.9124 50.0232 20.767C50.0232 19.6216 50.4188 19.097 50.9321 18.4227C51.5096 17.6626 52.1618 16.7956 52.1618 15.1042C52.1618 13.4129 51.5096 12.5565 50.9321 11.7965C50.4295 11.1221 50.0232 10.5976 50.0232 9.45219C50.0232 8.3068 50.4188 7.78227 50.9321 7.10788C51.5096 6.34786 52.1618 5.48078 52.1618 3.80016C52.1618 3.36127 51.7983 2.99731 51.3598 2.99731C50.9214 2.99731 50.5578 3.36127 50.5578 3.80016C50.5578 4.94555 50.1622 5.47008 49.6489 6.14447C49.0715 6.9045 48.4192 7.77157 48.4192 9.45219C48.4192 11.1328 49.0715 11.9999 49.6489 12.7599C50.1515 13.4343 50.5578 13.9588 50.5578 15.1042C50.5578 16.2496 50.1622 16.7741 49.6489 17.4485C49.0715 18.2086 48.4192 19.0756 48.4192 20.767Z" fill="#F2F1E3"/>
<path d="M56.4926 20.767C56.4926 22.4476 57.1448 23.3147 57.7223 24.0854C58.2249 24.7598 58.6312 25.2843 58.6312 26.4297C58.6312 26.8686 58.9948 27.2325 59.4332 27.2325C59.8716 27.2325 60.2352 26.8686 60.2352 26.4297C60.2352 24.7491 59.5829 23.882 59.0055 23.1113C58.5029 22.4369 58.0965 21.9124 58.0965 20.767C58.0965 19.6216 58.4922 19.097 59.0055 18.4227C59.5829 17.6626 60.2352 16.7956 60.2352 15.1042C60.2352 13.4129 59.5829 12.5565 59.0055 11.7965C58.5029 11.1221 58.0965 10.5976 58.0965 9.45219C58.0965 8.3068 58.4922 7.78227 59.0055 7.10788C59.5829 6.34786 60.2352 5.48078 60.2352 3.80016C60.2352 3.36127 59.8716 2.99731 59.4332 2.99731C58.9948 2.99731 58.6312 3.36127 58.6312 3.80016C58.6312 4.94555 58.2356 5.47008 57.7223 6.14447C57.1448 6.9045 56.4926 7.77157 56.4926 9.45219C56.4926 11.1328 57.1448 11.9999 57.7223 12.7599C58.2249 13.4343 58.6312 13.9588 58.6312 15.1042C58.6312 16.2496 58.2356 16.7741 57.7223 17.4485C57.1448 18.2086 56.4926 19.0756 56.4926 20.767Z" fill="#F2F1E3"/>
<path d="M64.566 20.767C64.566 22.4476 65.2183 23.3147 65.7958 24.0854C66.2984 24.7598 66.7047 25.2843 66.7047 26.4297C66.7047 26.8686 67.0683 27.2325 67.5067 27.2325C67.9451 27.2325 68.3087 26.8686 68.3087 26.4297C68.3087 24.7491 67.6564 23.882 67.079 23.1113C66.5764 22.4369 66.17 21.9124 66.17 20.767C66.17 19.6216 66.5657 19.097 67.079 18.4227C67.6564 17.6626 68.3087 16.7956 68.3087 15.1042C68.3087 13.4129 67.6564 12.5565 67.079 11.7965C66.5764 11.1221 66.17 10.5976 66.17 9.45219C66.17 8.3068 66.5657 7.78227 67.079 7.10788C67.6564 6.34786 68.3087 5.48078 68.3087 3.80016C68.3087 3.36127 67.9451 2.99731 67.5067 2.99731C67.0683 2.99731 66.7047 3.36127 66.7047 3.80016C66.7047 4.94555 66.309 5.47008 65.7958 6.14447C65.2183 6.9045 64.566 7.77157 64.566 9.45219C64.566 11.1328 65.2183 11.9999 65.7958 12.7599C66.2984 13.4343 66.7047 13.9588 66.7047 15.1042C66.7047 16.2496 66.309 16.7741 65.7958 17.4485C65.2183 18.2086 64.566 19.0756 64.566 20.767Z" fill="#F2F1E3"/>
<path d="M90.1979 33.3983H87.2465C87.0434 29.4911 83.8033 26.3868 79.8468 26.3868C77.0558 26.3868 74.5643 27.9069 73.2918 30.3368C72.7143 30.1441 72.1155 30.0585 71.4953 30.0585C69.2283 30.0585 67.1645 31.3752 66.2235 33.3983H35.9615C35.9615 33.3983 35.908 33.2913 35.8545 33.2378L26.4979 23.8712C27.4389 22.683 27.9522 21.2165 27.9522 19.675C27.9522 17.8552 27.2464 16.1532 25.9632 14.8687L18.0288 6.91513C16.7456 5.63058 15.0454 4.92407 13.2275 4.92407C11.4096 4.92407 9.70941 5.63058 8.42621 6.91513C5.77427 9.56987 5.77427 13.8838 8.42621 16.5279L16.3606 24.4707C17.6866 25.7981 19.4296 26.4617 21.1619 26.4617C22.6483 26.4617 24.1454 25.98 25.3644 25.0059L33.7479 33.3983H16.9595C16.521 33.3983 16.1575 33.7516 16.1575 34.2012V50.151C16.1575 66.0581 29.0857 79 44.9759 79H62.1814C78.0717 79 90.9999 66.0581 90.9999 50.151V34.2012C90.9999 33.7516 90.647 33.3983 90.1979 33.3983Z" fill="#F2F1E3"/>
<path d="M18.9592 20.9062L28.8505 30.808" stroke="#CAA57B" stroke-width="1.5" stroke-linecap="round" stroke-linejoin="round"/>
<path d="M18.5636 12.0213L18.97 12.4281C21.3118 14.7724 21.3118 18.5618 18.97 20.9061C16.6281 23.2505 12.8427 23.2505 10.5009 20.9061L2.56643 12.9633C0.2246 10.619 0.2246 6.82959 2.56643 4.48528C4.90827 2.14097 8.6937 2.14097 11.0355 4.48528L13.7944 7.24707" stroke="#CAA57B" stroke-width="1.5" stroke-linecap="round" stroke-linejoin="round"/>
<path d="M83.7606 39.5427H48.8363" stroke="#CAA57B" stroke-width="1.5" stroke-linecap="round" stroke-linejoin="round"/>
<path d="M44.0885 39.5427H32.08" stroke="#CAA57B" stroke-width="1.5" stroke-linecap="round" stroke-linejoin="round"/>
<path d="M26.4552 39.5427H10.5222" stroke="#CAA57B" stroke-width="1.5" stroke-linecap="round" stroke-linejoin="round"/>
<path d="M44.9226 0.802734C44.9226 3.62875 42.7839 3.62875 42.7839 6.45477C42.7839 9.28078 44.9226 9.28078 44.9226 12.1068C44.9226 14.9328 42.7839 14.9328 42.7839 17.7695C42.7839 20.6063 44.9226 20.5956 44.9226 23.4323" stroke="#CAA57B" stroke-width="1.5" stroke-linecap="round" stroke-linejoin="round"/>
<path d="M52.996 0.802734C52.996 3.62875 50.8573 3.62875 50.8573 6.45477C50.8573 9.28078 52.996 9.28078 52.996 12.1068C52.996 14.9328 50.8573 14.9328 50.8573 17.7695C50.8573 20.6063 52.996 20.5956 52.996 23.4323" stroke="#CAA57B" stroke-width="1.5" stroke-linecap="round" stroke-linejoin="round"/>
<path d="M61.0694 0.802734C61.0694 3.62875 58.9308 3.62875 58.9308 6.45477C58.9308 9.28078 61.0694 9.28078 61.0694 12.1068C61.0694 14.9328 58.9308 14.9328 58.9308 17.7695C58.9308 20.6063 61.0694 20.5956 61.0694 23.4323" stroke="#CAA57B" stroke-width="1.5" stroke-linecap="round" stroke-linejoin="round"/>
<path d="M10.6826 50.0974C10.5757 49.1233 10.5222 48.1385 10.5222 47.143V31.1931H83.7606V47.143C83.7606 62.5683 71.1532 75.189 55.7442 75.189H38.5387C26.7653 75.189 16.6281 67.8243 12.5005 57.4622" stroke="#CAA57B" stroke-width="1.5" stroke-linecap="round" stroke-linejoin="round"/>
<path d="M75.1632 24.4172C77.9755 25.188 80.0286 27.7571 80.0286 30.8079C80.0286 30.9363 80.0286 31.0648 80.0072 31.1933H60.3102C61.0052 29.245 62.8766 27.8534 65.058 27.8534C65.8493 27.8534 66.5978 28.0354 67.2608 28.3565C67.881 26.7937 69.0787 25.5198 70.5971 24.8133" stroke="#CAA57B" stroke-width="1.5" stroke-linecap="round" stroke-linejoin="round"/>
</g>
<defs>
<clipPath id="clip0_61_929">
<rect width="91" height="79" fill="white"/>
</clipPath>
</defs>
</svg>
