<svg width="88" height="91" viewBox="0 0 88 91" fill="none" xmlns="http://www.w3.org/2000/svg">
<g clip-path="url(#clip0_61_829)">
<path d="M73.18 58.72L56.1101 55.22L53.6501 53.59C53.59 53.55 53.5301 53.52 53.4701 53.5V51.39C59.98 48.81 64.2901 42.49 64.2901 35.41V32.81C66.2201 32.3 67.64 30.54 67.64 28.45C67.64 27.14 67.07 25.9 66.1 25.06V16.93C66.1 13.26 64.05 9.97996 60.75 8.35996L57.48 6.75996C52.76 1.92996 44.97 3.00996 37.96 4.68996C30.49 6.49996 23.52 10.21 23.22 10.37C22.68 10.65 22.44 11.32 22.69 11.89C24.23 15.35 26.64 17.89 29.9 19.45V24.09C27.97 24.6 26.55 26.35 26.55 28.45C26.55 30.55 27.97 32.3 29.9 32.81V35.41C29.9 42.49 34.22 48.81 40.73 51.39V53.5C40.67 53.52 40.6001 53.56 40.5401 53.59L38.0801 55.22L21.01 58.72C12.78 60.41 6.80005 68.25 6.80005 77.37V89.3C6.80005 89.95 7.33005 90.48 7.98005 90.48H86.18C86.83 90.48 87.36 89.95 87.36 89.3V77.37C87.36 68.25 81.39 60.42 73.17 58.72H73.18ZM64.2901 30.03H64.56C64.48 30.1 64.3801 30.17 64.2901 30.23V30.03Z" fill="#F2F1E3"/>
<path d="M9.06 58.1499C10.57 57.2299 12.23 56.5499 14.01 56.1899L31.31 52.6399L25.4 56.5599L30.98 62.2699L26.34 65.4099L39.86 85.5999H0.75V73.6699C0.75 69.6799 1.96 65.9599 4.02 62.9599" stroke="#CAA57B" stroke-width="1.5" stroke-linecap="round" stroke-linejoin="round"/>
<path d="M34.6701 55.7899C34.6701 55.8399 34.6701 55.8999 34.6801 55.9499L34.1201 52.0499L34.6601 51.9299V55.7899H34.6701Z" stroke="#CAA57B" stroke-width="1.5" stroke-linecap="round" stroke-linejoin="round"/>
<path d="M34.6899 55.95L34.8499 57.06C34.7399 56.7 34.6899 56.33 34.6899 55.95Z" stroke="#CAA57B" stroke-width="1.5" stroke-linecap="round" stroke-linejoin="round"/>
<path d="M44.8701 57.0601L39.8601 85.6001L34.8501 57.0601C35.0801 57.9901 35.5501 58.8101 36.2001 59.4601C37.1301 60.3901 38.4301 60.9701 39.8601 60.9701C42.2901 60.9701 44.3101 59.3101 44.8701 57.0601Z" stroke="#CAA57B" stroke-width="1.5" stroke-linecap="round" stroke-linejoin="round"/>
<path d="M44.8799 56.99L45.0299 56.01C45.0299 56.34 44.9799 56.67 44.8799 56.99Z" stroke="#CAA57B" stroke-width="1.5" stroke-linecap="round" stroke-linejoin="round"/>
<path d="M45.58 52.0499L45.02 55.9499C45.03 55.8999 45.03 55.8399 45.03 55.7899V51.9299L45.57 52.0499H45.58Z" stroke="#CAA57B" stroke-width="1.5" stroke-linecap="round" stroke-linejoin="round"/>
<path d="M49.0399 71.8999L53.3799 65.4199L48.7399 62.2799L54.3199 56.5699L48.4099 52.6499L65.7099 56.1999C72.9899 57.6999 78.3799 64.3899 78.9099 72.3799" stroke="#CAA57B" stroke-width="1.5" stroke-linecap="round" stroke-linejoin="round"/>
<path d="M78.9501 81.52V85.6H39.8601L46.1201 76.25" stroke="#CAA57B" stroke-width="1.5" stroke-linecap="round" stroke-linejoin="round"/>
<path d="M26.3399 65.4099L30.9799 62.2699L25.3999 56.5599L31.3099 52.6399L33.9599 50.8799L34.1299 52.0599L34.6899 55.9599C34.6899 56.3399 34.7399 56.7199 34.8499 57.0699L39.8599 85.6099L26.3399 65.4199V65.4099Z" stroke="#CAA57B" stroke-width="1.5" stroke-linecap="round" stroke-linejoin="round"/>
<path d="M34.8499 57.06C34.7399 56.7 34.6899 56.33 34.6899 55.95L34.8499 57.06Z" stroke="#CAA57B" stroke-width="1.5" stroke-linecap="round" stroke-linejoin="round"/>
<path d="M44.7101 78.3501L39.8501 85.6001L44.8601 57.0601C44.8601 57.0601 44.8701 57.0201 44.8701 56.9901C44.9601 56.6701 45.0201 56.3401 45.0201 56.0101V55.9401L45.5801 52.0401L45.7501 50.8601L48.4001 52.6201L54.3101 56.5401L48.7301 62.2501L53.3701 65.3901L49.9901 70.4401" stroke="#CAA57B" stroke-width="1.5" stroke-linecap="round" stroke-linejoin="round"/>
<path d="M45.0299 56.01C45.0299 56.34 44.9799 56.67 44.8799 56.99L45.0299 56.01Z" stroke="#CAA57B" stroke-width="1.5" stroke-linecap="round" stroke-linejoin="round"/>
<path d="M55.8701 25.14V31.7C55.8701 38.74 51.3401 44.72 45.0401 46.87C43.4101 47.43 41.6701 47.73 39.8601 47.73C38.0501 47.73 36.3101 47.43 34.6801 46.87C28.3801 44.72 23.8501 38.74 23.8501 31.7V14.98C33.7401 19.16 48.1201 12.98 48.1201 12.98C51.3501 15.74 52.4001 19.54 52.7101 22.17C52.7501 22.5 52.8301 22.82 52.9601 23.11C53.4601 24.25 54.5901 25.05 55.8801 25.14H55.8701Z" stroke="#CAA57B" stroke-width="1.5" stroke-linecap="round" stroke-linejoin="round"/>
<path d="M29.93 2.41002C30.29 2.31002 30.65 2.22002 31.01 2.14002C38.43 0.350015 45.4301 -0.339985 49.5401 4.02002L53 5.72002C55.86 7.13002 57.68 10.03 57.68 13.22V25.15H56.1301C56.0501 25.15 55.9601 25.15 55.8801 25.14C54.5901 25.05 53.47 24.25 52.96 23.11C52.83 22.82 52.75 22.5 52.71 22.17C52.41 19.55 51.36 15.74 48.12 12.98C48.12 12.98 33.7401 19.16 23.85 14.98C20.8001 13.69 18.19 11.43 16.55 7.70002C16.55 7.70002 19.49 6.13002 23.56 4.53002" stroke="#CAA57B" stroke-width="1.5" stroke-linecap="round" stroke-linejoin="round"/>
<path d="M23.84 21.3999V28.0799H23.83C21.99 28.0799 20.49 26.5799 20.49 24.7399C20.49 22.8999 21.99 21.3999 23.83 21.3999H23.84Z" stroke="#CAA57B" stroke-width="1.5" stroke-linecap="round" stroke-linejoin="round"/>
<path d="M59.2101 24.7399C59.2101 26.5799 57.7301 28.0799 55.8701 28.0799V25.1399C55.9501 25.1499 56.0401 25.1499 56.1201 25.1499H57.6701V21.9299C58.6001 22.5299 59.2101 23.5599 59.2101 24.7399Z" stroke="#CAA57B" stroke-width="1.5" stroke-linecap="round" stroke-linejoin="round"/>
<path d="M30.97 22.23H33.95" stroke="#CAA57B" stroke-width="1.5" stroke-linecap="round" stroke-linejoin="round"/>
<path d="M45.75 22.23H48.74" stroke="#CAA57B" stroke-width="1.5" stroke-linecap="round" stroke-linejoin="round"/>
<path d="M32.46 26.3401V27.9601" stroke="#CAA57B" stroke-width="1.5" stroke-linecap="round" stroke-linejoin="round"/>
<path d="M47.25 26.3401V27.9601" stroke="#CAA57B" stroke-width="1.5" stroke-linecap="round" stroke-linejoin="round"/>
<path d="M44.3199 35.0701C43.3399 36.4801 41.7099 37.4001 39.8499 37.4001C37.9899 37.4001 36.3599 36.4701 35.3799 35.0701" stroke="#CAA57B" stroke-width="1.5" stroke-linecap="round" stroke-linejoin="round"/>
<path d="M45.0399 46.8701V55.7901C45.0399 55.8401 45.0399 55.9001 45.0299 55.9501V56.0201L44.8799 57.0001C44.8799 57.0001 44.8699 57.0401 44.8699 57.0701C44.3099 59.3201 42.2799 60.9801 39.8599 60.9801C38.4299 60.9801 37.1299 60.4001 36.1999 59.4701C35.5499 58.8201 35.0699 58.0001 34.8499 57.0701L34.6899 55.9601C34.6799 55.9101 34.6799 55.8501 34.6799 55.8001V46.8801C36.3099 47.4401 38.0499 47.7401 39.8599 47.7401C41.6699 47.7401 43.4099 47.4401 45.0399 46.8801V46.8701Z" stroke="#CAA57B" stroke-width="1.5" stroke-linecap="round" stroke-linejoin="round"/>
<path d="M34.6899 55.95L34.8499 57.06C34.7399 56.7 34.6899 56.33 34.6899 55.95Z" stroke="#CAA57B" stroke-width="1.5" stroke-linecap="round" stroke-linejoin="round"/>
<path d="M45.0299 56.01C45.0299 56.34 44.9799 56.67 44.8799 56.99L45.0299 56.01Z" stroke="#CAA57B" stroke-width="1.5" stroke-linecap="round" stroke-linejoin="round"/>
<path d="M24.73 69.79H8.30005V78.35H24.73V69.79Z" stroke="#CAA57B" stroke-width="1.5" stroke-linecap="round" stroke-linejoin="round"/>
<path d="M16.51 67.27V71.99" stroke="#CAA57B" stroke-width="1.5" stroke-linecap="round" stroke-linejoin="round"/>
<path d="M23.8401 20.9001H24.4901C26.1401 20.9001 27.4701 19.5601 27.4701 17.9201V16.0601" stroke="#CAA57B" stroke-width="1.5" stroke-linecap="round" stroke-linejoin="round"/>
</g>
<defs>
<clipPath id="clip0_61_829">
<rect width="87.38" height="90.48" fill="white"/>
</clipPath>
</defs>
</svg>
