<svg width="80" height="72" viewBox="0 0 80 72" fill="none" xmlns="http://www.w3.org/2000/svg">
<g clip-path="url(#clip0_65_1009)">
<path d="M78.64 15.6499L42.0801 3.95993C41.93 3.91993 41.7701 3.91993 41.62 3.95993L5.07005 15.6499C4.76005 15.7499 4.55005 16.0399 4.55005 16.3599V20.2399C4.55005 20.6499 4.88005 20.9899 5.30005 20.9899H9.55005V24.1099C9.55005 24.5199 9.89005 24.8599 10.3 24.8599H13C13 24.8599 12.99 24.9099 12.99 24.9399V31.1499C12.99 31.5699 13.33 31.8999 13.74 31.8999H15.27V56.2899H13.74C13.33 56.2899 12.99 56.6299 12.99 57.0399V62.4999H10.3C9.89005 62.4999 9.55005 62.8399 9.55005 63.2499V70.9999C9.55005 71.4099 9.89005 71.7499 10.3 71.7499H73.4C73.82 71.7499 74.15 71.4099 74.15 70.9999V63.2499C74.15 62.8399 73.82 62.4999 73.4 62.4999H70.72V57.0399C70.72 56.6299 70.3801 56.2899 69.97 56.2899H68.4401V31.8999H69.97C70.3801 31.8999 70.72 31.5699 70.72 31.1499V24.9399C70.72 24.9399 70.72 24.8899 70.71 24.8599H73.4C73.82 24.8599 74.15 24.5199 74.15 24.1099V20.9899H78.41C78.8201 20.9899 79.16 20.6499 79.16 20.2399V16.3599C79.16 16.0399 78.95 15.7499 78.64 15.6499ZM37.3 56.2899C36.89 56.2899 36.55 56.6299 36.55 57.0399V62.4999H23.59V57.0399C23.59 56.6299 23.26 56.2899 22.84 56.2899H21.32V31.8999H22.84C23.26 31.8999 23.59 31.5699 23.59 31.1499V24.9399C23.59 24.9399 23.59 24.8899 23.58 24.8599H36.5601C36.5601 24.8599 36.55 24.9099 36.55 24.9399V31.1499C36.55 31.5699 36.89 31.8999 37.3 31.8999H38.8301V56.2899H37.3ZM47.14 24.8599H60.12C60.12 24.8599 60.1101 24.9099 60.1101 24.9399V31.1499C60.1101 31.5699 60.4501 31.8999 60.8601 31.8999H62.39V56.2899H60.8601C60.4501 56.2899 60.1101 56.6299 60.1101 57.0399V62.4999H47.1501V57.0399C47.1501 56.6299 46.82 56.2899 46.4001 56.2899H44.8801V31.8999H46.4001C46.82 31.8999 47.1501 31.5699 47.1501 31.1499V24.9399C47.1501 24.9399 47.15 24.8899 47.14 24.8599Z" fill="#F2F1E3"/>
<path d="M51.41 59.3199H68.85V67.0599H5.76001V59.3199H44.13" stroke="#CAA57B" stroke-width="1.5" stroke-linecap="round" stroke-linejoin="round"/>
<path d="M45.14 16.3101H68.86V20.1801H5.76001V16.3101H36.24" stroke="#CAA57B" stroke-width="1.5" stroke-linecap="round" stroke-linejoin="round"/>
<path d="M20.36 6.17L37.31 0.75L73.87 12.43V16.3H47.98" stroke="#CAA57B" stroke-width="1.5" stroke-linecap="round" stroke-linejoin="round"/>
<path d="M35.03 16.3099H0.75V12.4399L11.77 8.91992" stroke="#CAA57B" stroke-width="1.5" stroke-linecap="round" stroke-linejoin="round"/>
<path d="M18.2899 53.11H9.18994V59.32H18.2899V53.11Z" stroke="#CAA57B" stroke-width="1.5" stroke-linecap="round" stroke-linejoin="round"/>
<path d="M18.2899 21.01H9.18994V27.22H18.2899V21.01Z" stroke="#CAA57B" stroke-width="1.5" stroke-linecap="round" stroke-linejoin="round"/>
<path d="M11.47 37.8V27.23H16.02V53.12H11.47V43.68" stroke="#CAA57B" stroke-width="1.5" stroke-linecap="round" stroke-linejoin="round"/>
<path d="M41.86 53.11H32.76V59.32H41.86V53.11Z" stroke="#CAA57B" stroke-width="1.5" stroke-linecap="round" stroke-linejoin="round"/>
<path d="M41.86 21.01H32.76V27.22H41.86V21.01Z" stroke="#CAA57B" stroke-width="1.5" stroke-linecap="round" stroke-linejoin="round"/>
<path d="M39.58 27.23H35.03V53.12H39.58V27.23Z" stroke="#CAA57B" stroke-width="1.5" stroke-linecap="round" stroke-linejoin="round"/>
<path d="M65.4199 53.11H56.3199V59.32H65.4199V53.11Z" stroke="#CAA57B" stroke-width="1.5" stroke-linecap="round" stroke-linejoin="round"/>
<path d="M65.4199 21.01H56.3199V27.22H65.4199V21.01Z" stroke="#CAA57B" stroke-width="1.5" stroke-linecap="round" stroke-linejoin="round"/>
<path d="M63.14 44.28V53.11H58.59V27.22H63.14V38" stroke="#CAA57B" stroke-width="1.5" stroke-linecap="round" stroke-linejoin="round"/>
</g>
<defs>
<clipPath id="clip0_65_1009">
<rect width="79.16" height="71.75" fill="white"/>
</clipPath>
</defs>
</svg>
