<svg width="98" height="81" viewBox="0 0 98 81" fill="none" xmlns="http://www.w3.org/2000/svg">
<g clip-path="url(#clip0_61_950)">
<path d="M97.1878 79.3753H94.9352C95.2168 78.4329 95.3576 77.4581 95.3576 76.4615C95.3576 70.699 90.6682 66.0089 84.9067 66.0089C84.1053 66.0089 83.3363 66.0955 82.5891 66.2688C81.2678 64.8174 79.4701 63.9292 77.5207 63.7559C77.5857 63.4309 77.6181 63.106 77.6181 62.7702C77.6181 60.0947 75.4413 57.9175 72.7663 57.9175C72.4306 57.9175 72.0949 57.9609 71.7808 58.0367V11.4276H66.1601V5.26429C66.1601 4.82018 65.7919 4.4519 65.3478 4.4519H46.9911C46.5471 4.4519 46.1789 4.82018 46.1789 5.26429V11.4276H22.7212V44.9952H13.0826C12.6386 44.9952 12.2704 45.3635 12.2704 45.8076V79.3753H8.26329C7.81927 79.3753 7.45105 79.7436 7.45105 80.1877C7.45105 80.6318 7.81927 81 8.26329 81H22.7212C23.1653 81 23.5335 80.6426 23.5335 80.1877H27.8221C27.8221 80.6426 28.1904 81 28.6344 81H65.3478C65.7919 81 66.1601 80.6426 66.1601 80.1877H70.9686C70.9686 80.6426 71.3368 81 71.7808 81H97.1878C97.6318 81 98.0001 80.6426 98.0001 80.1877C98.0001 79.7327 97.6318 79.3753 97.1878 79.3753Z" fill="#F2F1E3"/>
<path d="M89.7368 75.7357H86.347" stroke="#CAA57B" stroke-width="1.5" stroke-linecap="round" stroke-linejoin="round"/>
<path d="M57.8968 75.7357H21.1833" stroke="#CAA57B" stroke-width="1.5" stroke-linecap="round" stroke-linejoin="round"/>
<path d="M15.2702 75.7357H5.63157H0.812256" stroke="#CAA57B" stroke-width="1.5" stroke-linecap="round" stroke-linejoin="round"/>
<path d="M15.2701 59.748V75.7357H21.1833V58.5457H57.8967V75.7357H64.3297V62.2393C64.3297 62.2393 64.308 62.2393 64.2972 62.2393C64.308 62.2176 64.3189 62.2068 64.3297 62.196V6.97559H15.2701V18.2515M15.2701 25.5521V51.4184M36.6484 53.9097H21.1833V38.4419H36.6484V53.9097ZM36.6484 29.8631H21.1833V14.3954H36.6484V29.8631ZM57.8967 53.9097H42.4316V38.4419H57.8967V53.9097ZM57.8967 29.8631H42.4316V14.3954H57.8967V29.8631Z" stroke="#CAA57B" stroke-width="1.5" stroke-linecap="round" stroke-linejoin="round"/>
<path d="M36.6485 14.3955H21.1833V29.8633H36.6485V14.3955Z" stroke="#CAA57B" stroke-width="1.5" stroke-linecap="round" stroke-linejoin="round"/>
<path d="M36.6485 38.4419H21.1833V53.9097H36.6485V38.4419Z" stroke="#CAA57B" stroke-width="1.5" stroke-linecap="round" stroke-linejoin="round"/>
<path d="M57.8968 14.3955H42.4316V29.8633H57.8968V14.3955Z" stroke="#CAA57B" stroke-width="1.5" stroke-linecap="round" stroke-linejoin="round"/>
<path d="M57.8968 38.4419H42.4316V53.9097H57.8968V38.4419Z" stroke="#CAA57B" stroke-width="1.5" stroke-linecap="round" stroke-linejoin="round"/>
<path d="M57.8968 58.5457H21.1833V75.7357H57.8968V58.5457Z" stroke="#CAA57B" stroke-width="1.5" stroke-linecap="round" stroke-linejoin="round"/>
<path d="M64.3291 62.196V62.2388C64.3291 62.2388 64.3079 62.2388 64.2972 62.2388C64.3079 62.2174 64.3185 62.2067 64.3291 62.196Z" stroke="#CAA57B" stroke-width="1.5" stroke-linecap="round" stroke-linejoin="round"/>
<path d="M5.63159 51.256V41.3557H15.2702V75.7358H5.63159V59.304" stroke="#CAA57B" stroke-width="1.5" stroke-linecap="round" stroke-linejoin="round"/>
<path d="M36.6485 14.3955H21.1833V29.8633H36.6485V14.3955Z" stroke="#CAA57B" stroke-width="1.5" stroke-linecap="round" stroke-linejoin="round"/>
<path d="M31.4718 14.3955V29.8633" stroke="#CAA57B" stroke-width="1.5" stroke-linecap="round" stroke-linejoin="round"/>
<path d="M57.8968 14.3955H42.4316V29.8633H57.8968V14.3955Z" stroke="#CAA57B" stroke-width="1.5" stroke-linecap="round" stroke-linejoin="round"/>
<path d="M52.7201 14.3955V29.8633" stroke="#CAA57B" stroke-width="1.5" stroke-linecap="round" stroke-linejoin="round"/>
<path d="M36.6485 38.4419H21.1833V53.9097H36.6485V38.4419Z" stroke="#CAA57B" stroke-width="1.5" stroke-linecap="round" stroke-linejoin="round"/>
<path d="M31.4718 38.4419V53.9097" stroke="#CAA57B" stroke-width="1.5" stroke-linecap="round" stroke-linejoin="round"/>
<path d="M57.8968 38.4419H42.4316V53.9097H57.8968V38.4419Z" stroke="#CAA57B" stroke-width="1.5" stroke-linecap="round" stroke-linejoin="round"/>
<path d="M52.7201 38.4419V53.9097" stroke="#CAA57B" stroke-width="1.5" stroke-linecap="round" stroke-linejoin="round"/>
<path d="M57.8968 58.5457H21.1833V75.7357H57.8968V58.5457Z" stroke="#CAA57B" stroke-width="1.5" stroke-linecap="round" stroke-linejoin="round"/>
<path d="M49.222 0.8125H57.8968V6.97578H39.54V0.8125H44.3918" stroke="#CAA57B" stroke-width="1.5" stroke-linecap="round" stroke-linejoin="round"/>
<path d="M85.9896 67.5253C86.6935 68.8685 87.0942 70.3958 87.0942 72.0097C87.0942 73.3312 86.8235 74.5876 86.347 75.7358H64.3297V54.4081C64.6438 54.3214 64.9795 54.2781 65.3152 54.2781C67.5462 54.2781 69.3548 56.087 69.3548 58.3183C69.3548 58.9574 69.2032 59.564 68.9433 60.1056C69.0732 60.0839 69.214 60.0839 69.3548 60.0839C71.5858 60.0839 73.5676 61.1129 74.8564 62.7269C75.6795 62.4886 76.5567 62.3694 77.4556 62.3694C79.1017 62.3694 80.6504 62.781 82.015 63.5067" stroke="#CAA57B" stroke-width="1.5" stroke-linecap="round" stroke-linejoin="round"/>
<path d="M64.3291 62.196V62.2388C64.3291 62.2388 64.3079 62.2388 64.2972 62.2388C64.3079 62.2174 64.3185 62.2067 64.3291 62.196Z" stroke="#CAA57B" stroke-width="1.5" stroke-linecap="round" stroke-linejoin="round"/>
<path d="M64.3291 62.196V62.2388C64.3291 62.2388 64.3079 62.2388 64.2972 62.2388C64.3079 62.2174 64.3185 62.2067 64.3291 62.196Z" stroke="#CAA57B" stroke-width="1.5" stroke-linecap="round" stroke-linejoin="round"/>
</g>
<defs>
<clipPath id="clip0_61_950">
<rect width="98" height="81" fill="white"/>
</clipPath>
</defs>
</svg>
