<svg width="44" height="76" viewBox="0 0 44 76" fill="none" xmlns="http://www.w3.org/2000/svg">
<g clip-path="url(#clip0_68_1173)">
<path d="M34.87 29.2301H31.88L30.98 26.0401C32.41 24.4501 33.19 22.4201 33.19 20.2701V11.4301C33.19 9.14011 32.3 6.99011 30.69 5.38011C29.07 3.75011 26.92 2.86011 24.64 2.86011C19.92 2.86011 16.08 6.70011 16.08 11.4301V20.2701C16.08 22.4101 16.85 24.4301 18.29 26.0101L17.39 29.2301H14.4C9.40998 29.2301 5.35999 33.2801 5.35999 38.2701V45.7001C5.35999 46.0101 5.54999 46.2901 5.82999 46.4001L12.64 49.0601L15.07 59.8701C15.15 60.2201 15.45 60.4601 15.8 60.4601H20.29V64.0801H10.11C9.68998 64.0801 9.35998 64.4101 9.35998 64.8301V74.4701C9.35998 74.8901 9.68998 75.2201 10.11 75.2201H40.93C41.34 75.2201 41.68 74.8901 41.68 74.4701V64.8301C41.68 64.4101 41.34 64.0801 40.93 64.0801H30.75V60.4601H33.47C33.82 60.4601 34.13 60.2201 34.2 59.8701L36.63 49.0601L43.44 46.4001C43.73 46.2901 43.92 46.0101 43.92 45.7001V38.2701C43.92 33.2801 39.86 29.2301 34.87 29.2301Z" fill="#F2F1E3"/>
<path d="M11.47 11.6801V8.57013C11.47 4.25013 14.97 0.760132 19.28 0.760132C21.44 0.760132 23.38 1.63013 24.8 3.05013C26.21 4.46013 27.08 6.41013 27.08 8.57013V17.4201C27.08 19.5901 26.19 21.5501 24.77 22.9701C23.35 24.3701 21.42 25.2301 19.27 25.2301C17.12 25.2301 15.17 24.3601 13.76 22.9601C12.33 21.5401 11.45 19.5801 11.45 17.4201V16.0101" stroke="#CAA57B" stroke-width="1.5" stroke-linecap="round" stroke-linejoin="round"/>
<path d="M13.78 22.9501L12.6 27.1101H9.03995C7.44995 27.1101 5.95995 27.5601 4.69995 28.3401" stroke="#CAA57B" stroke-width="1.5" stroke-linecap="round" stroke-linejoin="round"/>
<path d="M1.31 32.4001C0.95 33.3301 0.75 34.3501 0.75 35.4101V42.8401L7.93 45.6401L10.45 56.8401H19.28" stroke="#CAA57B" stroke-width="1.5" stroke-linecap="round" stroke-linejoin="round"/>
<path d="M24.78 22.9701L25.96 27.1201H29.52C34.1 27.1201 37.82 30.8301 37.82 35.4201V42.8501L30.64 45.6501L29.77 49.5001" stroke="#CAA57B" stroke-width="1.5" stroke-linecap="round" stroke-linejoin="round"/>
<path d="M28.44 55.4102L28.12 56.8502H19.29" stroke="#CAA57B" stroke-width="1.5" stroke-linecap="round" stroke-linejoin="round"/>
<path d="M24.6401 56.8501H15.6801V61.9101H24.6401V56.8501Z" stroke="#CAA57B" stroke-width="1.5" stroke-linecap="round" stroke-linejoin="round"/>
<path d="M11.37 61.9701H35.57V71.6201H4.75V61.9701H8.41" stroke="#CAA57B" stroke-width="1.5" stroke-linecap="round" stroke-linejoin="round"/>
</g>
<defs>
<clipPath id="clip0_68_1173">
<rect width="43.92" height="75.22" fill="white"/>
</clipPath>
</defs>
</svg>
