<svg width="100" height="58" viewBox="0 0 100 58" fill="none" xmlns="http://www.w3.org/2000/svg">
<g clip-path="url(#clip0_68_1144)">
<path d="M99.3901 56.3101L88.5801 38.5501C88.4101 38.2801 88.0901 38.1401 87.7801 38.2101C87.4601 38.2801 87.2301 38.5401 87.1901 38.8601L86.4201 45.8101L70.3201 17.1401C70.3201 17.1401 70.2901 17.1001 70.2701 17.0801C70.2401 17.0201 70.1901 16.9701 70.1401 16.9401C70.0901 16.8901 70.0301 16.8501 69.9701 16.8301C69.9301 16.8101 69.9001 16.7901 69.8501 16.7801C69.8101 16.7701 69.7701 16.7701 69.7301 16.7701C69.7101 16.7601 69.6901 16.7601 69.6601 16.7601H69.6101C69.6101 16.7601 69.5301 16.7701 69.4901 16.7801C69.4301 16.8001 69.3701 16.8201 69.3101 16.8501C69.2301 16.8901 69.1601 16.9501 69.1101 17.0201C69.0801 17.0401 69.0601 17.0601 69.0501 17.0801L61.3901 28.1801L59.7601 25.4301C59.6201 25.2101 59.3801 25.0701 59.1101 25.0701H54.4301L44.0801 4.13008C44.0801 4.13008 44.0401 4.05008 44.0101 4.01008C43.9801 3.98008 43.9501 3.94008 43.9101 3.91008C43.8401 3.84008 43.7701 3.79008 43.6801 3.76008C43.6601 3.75008 43.6301 3.74008 43.5901 3.74008C43.5401 3.72008 43.4901 3.71008 43.4401 3.71008H43.3701C43.3701 3.71008 43.3501 3.71008 43.3401 3.71008C43.2401 3.72008 43.1301 3.75008 43.0401 3.80008C42.9901 3.82008 42.9501 3.85008 42.9201 3.88008C42.9001 3.90008 42.8801 3.92008 42.8701 3.93008C42.8001 4.00008 42.7501 4.08008 42.7101 4.17008L30.6301 26.9301L27.5201 32.7801H22.5601C22.3001 32.7801 22.0501 32.9201 21.9101 33.1501L8.53012 56.3201C8.40012 56.5501 8.40012 56.8401 8.53012 57.0701C8.67012 57.3001 8.91012 57.4401 9.18012 57.4401H98.7501C99.0201 57.4401 99.2701 57.3001 99.4001 57.0601C99.5301 56.8201 99.5301 56.5301 99.3901 56.3001V56.3101Z" fill="#F2F1E3"/>
<path d="M52.9099 25.8701L50.6799 22.1101H45.5299L41.6799 14.3201" stroke="#CAA57B" stroke-width="1.5" stroke-linecap="round" stroke-linejoin="round"/>
<path d="M38.92 8.73012L34.98 0.750122L19.54 29.8301H14.14L10.3 36.4701" stroke="#CAA57B" stroke-width="1.5" stroke-linecap="round" stroke-linejoin="round"/>
<path d="M6.51 43.0302L0.75 53.0002H90.32L87.19 47.8602" stroke="#CAA57B" stroke-width="1.5" stroke-linecap="round" stroke-linejoin="round"/>
<path d="M83.6199 41.9902L79.5099 35.2402L78.4799 44.5102L68.8899 27.4302" stroke="#CAA57B" stroke-width="1.5" stroke-linecap="round" stroke-linejoin="round"/>
<path d="M68.8 27.2702L61.24 13.8102C61.24 13.8102 50.65 29.1702 42.73 40.6602" stroke="#CAA57B" stroke-width="1.5" stroke-linecap="round" stroke-linejoin="round"/>
<path d="M37.7099 47.9102L34.2 52.9902" stroke="#CAA57B" stroke-width="1.5" stroke-linecap="round" stroke-linejoin="round"/>
<path d="M8.42993 53.0001L18.9899 37.2101L23.5299 45.1101L27.2199 42.1001V53.0001" stroke="#CAA57B" stroke-width="1.5" stroke-linecap="round" stroke-linejoin="round"/>
<path d="M34.9801 0.750122L36.3201 24.4301L29.2001 30.9501L27.2201 22.3701L22.8101 23.6801" stroke="#CAA57B" stroke-width="1.5" stroke-linecap="round" stroke-linejoin="round"/>
<path d="M61.23 13.8002L62.1 25.6702" stroke="#CAA57B" stroke-width="1.5" stroke-linecap="round" stroke-linejoin="round"/>
<path d="M62.48 30.7601L62.82 35.4201L55.87 40.0501L52.78 33.1001L47.02 34.4601" stroke="#CAA57B" stroke-width="1.5" stroke-linecap="round" stroke-linejoin="round"/>
</g>
<defs>
<clipPath id="clip0_68_1144">
<rect width="99.5" height="57.45" fill="white"/>
</clipPath>
</defs>
</svg>
