<svg width="159" height="91" viewBox="0 0 159 91" fill="none" xmlns="http://www.w3.org/2000/svg">
<path fill-rule="evenodd" clip-rule="evenodd" d="M3.02845 91H0L47.2116 0H50.24L3.02845 91ZM9.06602 91H6.04401L53.2556 0H56.284L9.06602 91ZM12.0816 91H15.11L62.3216 0H59.2996L12.0816 91ZM21.154 91H18.1256L65.3372 0H68.3656L21.154 91ZM24.1696 91H27.198L74.4096 0H71.3812L24.1696 91ZM33.2356 91H30.2136L77.4252 0H80.4536L33.2356 91ZM36.2512 91H39.2796L86.4912 0H83.4692L36.2512 91ZM45.3236 91H42.2952L89.5068 0H92.5352L45.3236 91ZM48.3392 91H51.3676L98.5792 0H95.5508L48.3392 91ZM57.4052 91H54.3832L101.595 0H104.617L57.4052 91ZM60.4208 91H63.4492L110.661 0H107.639L60.4208 91ZM69.4932 91H66.4648L113.676 0H116.705L69.4932 91ZM72.5088 91H75.5308L122.749 0H119.72L72.5088 91ZM81.5748 91H78.5464L125.764 0H128.786L81.5748 91ZM84.5904 91H87.6188L134.83 0H131.802L84.5904 91ZM93.6628 91H90.6344L137.846 0H140.874L93.6628 91ZM96.6784 91H99.7004L146.918 0H143.89L96.6784 91ZM105.744 91H102.716L149.934 0H152.956L105.744 91ZM108.76 91H111.788L159 0H155.972L108.76 91Z" fill="url(#paint0_linear_491_2071)" fill-opacity="0.46"/>
<defs>
<linearGradient id="paint0_linear_491_2071" x1="60" y1="91" x2="74" y2="17.5" gradientUnits="userSpaceOnUse">
<stop stop-color="#E0E0E0"/>
<stop offset="1" stop-color="#E0E0E0" stop-opacity="0"/>
</linearGradient>
</defs>
</svg>
