<svg width="96" height="68" viewBox="0 0 96 68" fill="none" xmlns="http://www.w3.org/2000/svg">
<g clip-path="url(#clip0_65_1105)">
<path d="M95.9701 53.2101L85.9301 5.42009C85.8501 5.03009 85.4801 4.79009 85.0901 4.87009L65.1501 8.84009H65.1301L39.0101 14.3301L32.4801 15.6901C30.1301 14.6701 27.6201 14.1601 25.0201 14.1601C14.5701 14.1601 6.06006 22.6601 6.06006 33.1201C6.06006 43.5801 14.5701 52.0701 25.0201 52.0701C26.1701 52.0701 27.3001 51.9701 28.4201 51.7501L31.5201 66.5201C31.5601 66.7001 31.6601 66.8701 31.8201 66.9601C31.9301 67.0401 32.0701 67.0801 32.2101 67.0801C32.2601 67.0801 32.3001 67.0801 32.3501 67.0601L76.6601 57.7501C76.6601 57.7501 76.6901 57.7501 76.7001 57.7501L95.4201 54.0401C95.6001 54.0001 95.7701 53.8901 95.8701 53.7301C95.9701 53.5801 96.0101 53.3801 95.9701 53.2001V53.2101Z" fill="#F2F1E3"/>
<path d="M34.5799 37.8301C36.2799 35.0601 37.2599 31.8001 37.2599 28.3101C37.2599 20.8501 32.7999 14.4501 26.4099 11.6201L33.2099 10.1901L59.2899 4.7201L68.6699 2.8501" stroke="#CAA57B" stroke-width="1.5" stroke-linecap="round" stroke-linejoin="round"/>
<path d="M73.4499 1.90012L79.2199 0.750122L81.3699 11.0201L84.4299 25.6101L89.2499 48.5401L70.4899 52.2701L26.1799 61.5801L24.8999 55.4701L22.9399 46.1301C25.6799 45.5301 28.1799 44.3101 30.3099 42.6301" stroke="#CAA57B" stroke-width="1.5" stroke-linecap="round" stroke-linejoin="round"/>
<path d="M24.9199 55.4601C39.4499 54.3501 49.1899 52.1601 55.5299 49.3701" stroke="#CAA57B" stroke-width="1.5" stroke-linecap="round" stroke-linejoin="round"/>
<path d="M61.1499 46.1302C63.6599 44.1802 65.0799 42.0702 65.7499 39.9002C67.9999 32.5402 61.2599 25.2002 65.2399 18.1002C65.9899 16.7602 66.8199 15.6802 67.7499 14.8102" stroke="#CAA57B" stroke-width="1.5" stroke-linecap="round" stroke-linejoin="round"/>
<path d="M72.3599 12.2201C74.7599 11.4801 77.6999 11.1901 81.3799 11.0101" stroke="#CAA57B" stroke-width="1.5" stroke-linecap="round" stroke-linejoin="round"/>
<path d="M70.5099 52.2602C70.1599 46.7902 71.1099 41.5902 73.3399 37.1602" stroke="#CAA57B" stroke-width="1.5" stroke-linecap="round" stroke-linejoin="round"/>
<path d="M77.22 31.3301C79.6 28.2101 81.14 26.8201 84.44 25.6001" stroke="#CAA57B" stroke-width="1.5" stroke-linecap="round" stroke-linejoin="round"/>
<path d="M59.29 4.72009C59.36 7.43009 59.27 9.98009 59.04 12.2801" stroke="#CAA57B" stroke-width="1.5" stroke-linecap="round" stroke-linejoin="round"/>
<path d="M57.9699 18.1101C56.9099 21.8701 55.2499 24.4101 53.0699 25.2001C50.4099 26.1701 46.5999 24.6801 42.4199 21.0701" stroke="#CAA57B" stroke-width="1.5" stroke-linecap="round" stroke-linejoin="round"/>
<path d="M39.27 18.0001C37.26 15.8301 35.21 13.2201 33.2 10.2001" stroke="#CAA57B" stroke-width="1.5" stroke-linecap="round" stroke-linejoin="round"/>
<path d="M30.39 42.5701C28.25 44.2801 25.72 45.5101 22.96 46.1201C21.69 46.4001 20.37 46.5501 19.01 46.5501C8.92 46.5601 0.75 38.3901 0.75 28.3101C0.75 20.7801 5.31 14.3101 11.81 11.5201" stroke="#CAA57B" stroke-width="1.5" stroke-linecap="round" stroke-linejoin="round"/>
<path d="M19.7 10.0701C22.08 10.1601 24.34 10.7001 26.41 11.6301C32.8 14.4601 37.2599 20.8601 37.2599 28.3201C37.2599 31.3501 36.5199 34.2201 35.2099 36.7301" stroke="#CAA57B" stroke-width="1.5" stroke-linecap="round" stroke-linejoin="round"/>
<path d="M14.6701 32.6401L11.3401 20.6401L23.3401 23.9701L14.6701 32.6401Z" stroke="#CAA57B" stroke-width="1.5" stroke-linecap="round" stroke-linejoin="round"/>
<path d="M14.6699 32.6401L26.6699 35.9701L23.3399 23.9701L14.6699 32.6401Z" stroke="#CAA57B" stroke-width="1.5" stroke-linecap="round" stroke-linejoin="round"/>
</g>
<defs>
<clipPath id="clip0_65_1105">
<rect width="95.98" height="67.09" fill="white"/>
</clipPath>
</defs>
</svg>
