<svg width="89" height="80" viewBox="0 0 89 80" fill="none" xmlns="http://www.w3.org/2000/svg">
<g clip-path="url(#clip0_61_917)">
<path d="M88.0301 78.66L84.0301 68.55C83.9201 68.26 83.6401 68.07 83.3301 68.07H77.7401L74.9401 61.63C74.8201 61.36 74.5501 61.18 74.2501 61.18H63.6601L58.6901 8.28004C58.6601 8.02004 58.5001 7.78004 58.2601 7.67004L47.6101 2.67004C47.4001 2.58004 47.1701 2.58004 46.9701 2.67004L36.3201 7.67004C36.0801 7.78004 35.9101 8.02004 35.8901 8.28004L30.9201 61.18H20.3201C20.0201 61.18 19.7501 61.36 19.6301 61.63L16.8301 68.07H11.2401C10.9401 68.07 10.6601 68.26 10.5501 68.55L6.55009 78.66C6.45009 78.89 6.48009 79.15 6.62009 79.36C6.76009 79.56 6.99009 79.69 7.24009 79.69H87.3301C87.5801 79.69 87.8101 79.56 87.9501 79.36C88.0901 79.15 88.1201 78.89 88.0301 78.66Z" fill="#F2F1E3"/>
<path d="M27.2099 37.02L30.1499 5.75L40.7899 0.75L51.4399 5.75L56.4399 58.97H25.1399L26.5799 43.65" stroke="#CAA57B" stroke-width="1.5" stroke-linecap="round" stroke-linejoin="round"/>
<path d="M40.79 58.4999V43.6599" stroke="#CAA57B" stroke-width="1.5" stroke-linecap="round" stroke-linejoin="round"/>
<path d="M40.79 39.41V20.95" stroke="#CAA57B" stroke-width="1.5" stroke-linecap="round" stroke-linejoin="round"/>
<path d="M70.7601 66.2201H10.8301L13.8301 59.3301H67.7601L70.7601 66.2201Z" stroke="#CAA57B" stroke-width="1.5" stroke-linecap="round" stroke-linejoin="round"/>
<path d="M21.39 76.34H0.75L4.75 66.22H76.84L80.84 76.34H77.02" stroke="#CAA57B" stroke-width="1.5" stroke-linecap="round" stroke-linejoin="round"/>
<path d="M71.9601 76.34H29.0801" stroke="#CAA57B" stroke-width="1.5" stroke-linecap="round" stroke-linejoin="round"/>
</g>
<defs>
<clipPath id="clip0_61_917">
<rect width="88.08" height="79.69" fill="white"/>
</clipPath>
</defs>
</svg>
