<svg width="77" height="77" viewBox="0 0 77 77" fill="none" xmlns="http://www.w3.org/2000/svg">
<g clip-path="url(#clip0_61_984)">
<path d="M67.09 17.46C60.53 10.05 51.09 5.71001 41.23 5.53001C41.1101 5.52001 41 5.52001 40.8801 5.52001H40.84C40.7401 5.51001 40.64 5.51001 40.5401 5.51001C40.4401 5.51001 40.34 5.51001 40.2401 5.52001C40.2201 5.52001 40.21 5.52001 40.2001 5.53001C40.0801 5.52001 39.96 5.52001 39.85 5.53001C29.98 5.72001 20.56 10.06 14 17.46C13.97 17.5 13.94 17.53 13.91 17.57C8.19005 24.04 5.05005 32.37 5.05005 41.01C5.05005 50.11 8.49005 58.76 14.73 65.36C21.33 72.36 30.26 76.31 39.85 76.49C40.09 76.5 40.32 76.5 40.55 76.5C40.78 76.5 41.01 76.5 41.23 76.49H41.25C50.8501 76.3 59.7701 72.35 66.3601 65.36C72.6001 58.75 76.04 50.1 76.04 41.01C76.04 31.92 72.86 23.96 67.1 17.46H67.09Z" fill="#F2F1E3"/>
<path d="M1.86 44.22C1.14 41.43 0.75 38.51 0.75 35.49C0.75 26.65 4.06 18.57 9.51 12.44C15.73 5.42 24.76 0.94 34.84 0.76C35.06 0.75 35.28 0.75 35.5 0.75C35.72 0.75 35.94 0.75 36.16 0.76C46.24 0.94 55.27 5.42 61.49 12.44C64.22 15.51 66.41 19.07 67.92 22.98" stroke="#CAA57B" stroke-width="1.5" stroke-linecap="round" stroke-linejoin="round"/>
<path d="M69.8 29.9399C70.09 31.7499 70.24 33.6099 70.24 35.4999C70.24 44.7299 66.64 53.1199 60.77 59.3399C54.58 65.8999 45.85 70.0499 36.16 70.2299C35.94 70.2399 35.72 70.2399 35.5 70.2399C35.28 70.2399 35.06 70.2399 34.84 70.2299C25.15 70.0499 16.42 65.8999 10.23 59.3399C7.62999 56.5799 5.47 53.3999 3.87 49.9099" stroke="#CAA57B" stroke-width="1.5" stroke-linecap="round" stroke-linejoin="round"/>
<path d="M61.49 12.44C60.14 13.96 58.66 15.36 57.06 16.62C53.66 19.32 49.74 21.39 45.48 22.66C42.32 23.61 38.97 24.12 35.5 24.12C32.03 24.12 28.68 23.61 25.52 22.66C21.25 21.39 17.33 19.31 13.93 16.61C12.33 15.35 10.86 13.96 9.51001 12.44C15.73 5.42 24.76 0.94 34.84 0.76C35.06 0.75 35.28 0.75 35.5 0.75C35.72 0.75 35.94 0.75 36.16 0.76C46.24 0.94 55.27 5.42 61.49 12.44Z" stroke="#CAA57B" stroke-width="1.5" stroke-linecap="round" stroke-linejoin="round"/>
<path d="M60.77 59.3299C54.58 65.8899 45.85 70.0399 36.16 70.2199C35.94 70.2299 35.72 70.2299 35.5 70.2299C35.28 70.2299 35.06 70.2299 34.84 70.2199C25.15 70.0399 16.42 65.8899 10.23 59.3299C11.54 57.9299 12.96 56.6499 14.49 55.4899C17.81 52.9599 21.61 51.0199 25.72 49.8199C28.82 48.9099 32.1 48.4199 35.5 48.4199C38.9 48.4199 42.18 48.9099 45.28 49.8199C49.39 51.0199 53.18 52.9599 56.5 55.4799C58.03 56.6499 59.46 57.9299 60.77 59.3299Z" stroke="#CAA57B" stroke-width="1.5" stroke-linecap="round" stroke-linejoin="round"/>
<path d="M28.48 9.2C30.36 3.93 32.82 0.75 35.5 0.75C41.43 0.75 46.24 16.31 46.24 35.49C46.24 54.67 41.43 70.23 35.5 70.23C29.57 70.23 24.76 54.67 24.76 35.49C24.76 29.14 25.29 23.19 26.21 18.07" stroke="#CAA57B" stroke-width="1.5" stroke-linecap="round" stroke-linejoin="round"/>
<path d="M58.6201 50.64C58.0101 52.34 57.3001 53.96 56.5001 55.48C51.9701 64.18 44.5701 69.93 36.1601 70.22C35.9401 70.23 35.7201 70.23 35.5001 70.23C35.2801 70.23 35.0601 70.23 34.8401 70.22C26.4301 69.93 19.0201 64.18 14.4901 55.49C11.5401 49.84 9.81006 42.93 9.81006 35.49C9.81006 28.53 11.3201 22.05 13.9301 16.61C18.4001 7.3 26.0701 1.06 34.8401 0.76C35.0601 0.75 35.2801 0.75 35.5001 0.75C35.7201 0.75 35.9401 0.75 36.1601 0.76C44.9301 1.06 52.6001 7.3 57.0601 16.62C59.6701 22.05 61.1801 28.54 61.1801 35.49C61.1801 39.01 60.7901 42.41 60.0701 45.61" stroke="#CAA57B" stroke-width="1.5" stroke-linecap="round" stroke-linejoin="round"/>
<path d="M0.75 35.49H70.24" stroke="#CAA57B" stroke-width="1.5" stroke-linecap="round" stroke-linejoin="round"/>
</g>
<defs>
<clipPath id="clip0_61_984">
<rect width="76.03" height="76.5" fill="white"/>
</clipPath>
</defs>
</svg>
